<?xml version="1.0" encoding="UTF-8"?>
<svg xmlns="http://www.w3.org/2000/svg" xmlns:xlink="http://www.w3.org/1999/xlink" width="578.568pt" height="300pt" viewBox="0 0 578.568 300" version="1.1">
<g id="surface1">
<path style=" stroke:none;fill-rule:nonzero;fill:rgb(94.099426%,48.999023%,12.5%);fill-opacity:1;" d="M 260 150 C 260 210.75 210.75 260 150 260 C 89.25 260 40 210.75 40 150 C 40 89.25 89.25 40 150 40 C 210.75 40 260 89.25 260 150 "/>
<path style=" stroke:none;fill-rule:nonzero;fill:rgb(13.699341%,12.199402%,12.5%);fill-opacity:1;" d="M 169.445312 258.285156 L 178.445312 232.21875 C 203.574219 223.5 223.5 203.570312 232.21875 178.445312 L 258.285156 169.445312 C 250.230469 214.609375 214.609375 250.230469 169.445312 258.285156 M 41.714844 169.445312 L 67.78125 178.445312 C 76.5 203.570312 96.429688 223.5 121.554688 232.21875 L 130.554688 258.285156 C 85.390625 250.230469 49.769531 214.609375 41.714844 169.445312 M 130.554688 41.714844 L 121.554688 67.78125 C 96.429688 76.5 76.5 96.425781 67.78125 121.554688 L 41.714844 130.554688 C 49.769531 85.390625 85.390625 49.769531 130.554688 41.714844 M 150 225 C 108.578125 225 75 191.421875 75 150 C 75 108.578125 108.578125 75 150 75 C 191.421875 75 225 108.578125 225 150 C 225 191.421875 191.421875 225 150 225 M 258.285156 130.554688 L 232.21875 121.554688 C 223.5 96.425781 203.574219 76.5 178.445312 67.78125 L 169.445312 41.714844 C 214.609375 49.769531 250.230469 85.390625 258.285156 130.554688 M 233.4375 66.5625 C 211.152344 44.273438 181.519531 32 150 32 C 118.480469 32 88.847656 44.273438 66.5625 66.5625 C 44.273438 88.847656 32 118.480469 32 150 C 32 181.519531 44.273438 211.152344 66.5625 233.4375 C 88.847656 255.726562 118.480469 268 150 268 C 181.519531 268 211.152344 255.726562 233.4375 233.4375 C 255.726562 211.152344 268 181.519531 268 150 C 268 118.480469 255.726562 88.847656 233.4375 66.5625 "/>
<path style=" stroke:none;fill-rule:nonzero;fill:rgb(13.699341%,12.199402%,12.5%);fill-opacity:1;" d="M 147.128906 171.167969 L 147.128906 92.605469 C 147.128906 91.996094 146.632812 91.5 146.019531 91.5 L 109.480469 91.5 C 108.871094 91.5 108.375 91.996094 108.375 92.605469 L 108.375 207.394531 C 108.375 208.003906 108.871094 208.5 109.480469 208.5 L 190.519531 208.5 C 191.128906 208.5 191.625 208.003906 191.625 207.394531 L 191.625 173.382812 C 191.625 172.769531 191.128906 172.273438 190.519531 172.273438 L 148.234375 172.273438 C 147.625 172.273438 147.128906 171.777344 147.128906 171.167969 "/>
<path style=" stroke:none;fill-rule:nonzero;fill:rgb(13.699341%,12.199402%,12.5%);fill-opacity:1;" d="M 163.664062 126.097656 C 162.902344 126.066406 162.152344 126.355469 161.609375 126.898438 C 161.128906 127.382812 160.84375 128.03125 160.808594 128.730469 C 160.78125 129.464844 161.039062 130.160156 161.535156 130.699219 C 162.03125 131.238281 162.710938 131.550781 163.441406 131.578125 C 165.769531 131.671875 167.953125 132.628906 169.597656 134.273438 C 171.507812 136.183594 172.480469 138.824219 172.265625 141.523438 C 172.207031 142.257812 172.4375 142.96875 172.914062 143.527344 C 173.390625 144.082031 174.054688 144.421875 174.785156 144.476562 C 174.859375 144.480469 174.929688 144.484375 175 144.484375 C 176.425781 144.484375 177.609375 143.414062 177.738281 141.960938 C 178.074219 137.65625 176.523438 133.4375 173.476562 130.394531 C 170.851562 127.769531 167.367188 126.242188 163.664062 126.097656 "/>
<path style=" stroke:none;fill-rule:nonzero;fill:rgb(13.699341%,12.199402%,12.5%);fill-opacity:1;" d="M 163.566406 114.675781 C 162.792969 114.652344 162.105469 114.945312 161.574219 115.476562 C 161.074219 115.976562 160.785156 116.648438 160.765625 117.371094 C 160.75 118.878906 161.957031 120.128906 163.460938 120.15625 C 168.839844 120.261719 173.890625 122.40625 177.683594 126.199219 C 181.746094 130.261719 183.941406 135.878906 183.714844 141.617188 C 183.683594 142.351562 183.941406 143.050781 184.441406 143.589844 C 184.9375 144.125 185.617188 144.4375 186.34375 144.464844 C 186.386719 144.46875 186.429688 144.46875 186.46875 144.46875 C 187.148438 144.46875 187.796875 144.214844 188.304688 143.75 C 188.851562 143.246094 189.167969 142.566406 189.199219 141.832031 C 189.484375 134.570312 186.703125 127.457031 181.5625 122.324219 C 176.753906 117.511719 170.359375 114.796875 163.566406 114.675781 "/>
<path style=" stroke:none;fill-rule:nonzero;fill:rgb(13.699341%,12.199402%,12.5%);fill-opacity:1;" d="M 189.832031 114.054688 C 182.808594 107.035156 173.476562 103.101562 163.542969 102.984375 L 163.511719 102.984375 C 162.78125 102.984375 162.09375 103.269531 161.574219 103.789062 C 161.0625 104.300781 160.777344 104.976562 160.769531 105.695312 C 160.761719 106.425781 161.035156 107.121094 161.550781 107.644531 C 162.0625 108.167969 162.746094 108.460938 163.480469 108.46875 C 171.96875 108.570312 179.949219 111.929688 185.953125 117.933594 C 192.289062 124.269531 195.644531 132.691406 195.40625 141.652344 C 195.363281 143.164062 196.5625 144.429688 198.078125 144.472656 C 198.097656 144.472656 198.117188 144.472656 198.136719 144.472656 C 199.617188 144.472656 200.847656 143.285156 200.890625 141.804688 C 201.167969 131.316406 197.238281 121.464844 189.832031 114.054688 "/>
<path style=" stroke:none;fill-rule:nonzero;fill:rgb(100%,100%,100%);fill-opacity:1;" d="M 131.773438 190.265625 C 131.773438 188.773438 131.535156 187.535156 131.046875 186.554688 C 130.5625 185.570312 129.917969 184.789062 129.109375 184.203125 C 128.300781 183.621094 127.378906 183.203125 126.347656 182.953125 C 125.316406 182.707031 124.253906 182.582031 123.160156 182.582031 L 119.988281 182.582031 L 119.988281 198.023438 L 123.007812 198.023438 C 124.152344 198.023438 125.253906 197.890625 126.3125 197.632812 C 127.367188 197.371094 128.300781 196.941406 129.109375 196.34375 C 129.917969 195.746094 130.5625 194.953125 131.046875 193.957031 C 131.535156 192.964844 131.773438 191.730469 131.773438 190.265625 M 138.414062 190.265625 C 138.414062 192.578125 137.984375 194.570312 137.128906 196.25 C 136.269531 197.929688 135.136719 199.308594 133.734375 200.390625 C 132.328125 201.472656 130.742188 202.269531 128.976562 202.777344 C 127.210938 203.289062 125.421875 203.542969 123.605469 203.542969 L 113.757812 203.542969 L 113.757812 177.132812 L 123.308594 177.132812 C 125.171875 177.132812 127.011719 177.351562 128.828125 177.789062 C 130.644531 178.222656 132.261719 178.941406 133.675781 179.949219 C 135.09375 180.957031 136.238281 182.308594 137.109375 184 C 137.976562 185.6875 138.414062 187.777344 138.414062 190.265625 "/>
<path style=" stroke:none;fill-rule:nonzero;fill:rgb(100%,100%,100%);fill-opacity:1;" d="M 156.503906 185.230469 C 156.503906 184.609375 156.375 184.105469 156.109375 183.71875 C 155.847656 183.332031 155.511719 183.035156 155.097656 182.824219 C 154.6875 182.613281 154.222656 182.46875 153.710938 182.394531 C 153.199219 182.320312 152.707031 182.28125 152.230469 182.28125 L 148.820312 182.28125 L 148.820312 188.4375 L 151.855469 188.4375 C 152.382812 188.4375 152.917969 188.394531 153.46875 188.304688 C 154.019531 188.21875 154.519531 188.0625 154.96875 187.839844 C 155.417969 187.617188 155.789062 187.292969 156.074219 186.871094 C 156.359375 186.445312 156.503906 185.898438 156.503906 185.230469 M 156.765625 203.542969 L 151.035156 193.0625 L 148.855469 193.0625 L 148.855469 203.542969 L 142.628906 203.542969 L 142.628906 177.136719 L 152.699219 177.136719 C 153.96875 177.136719 155.207031 177.265625 156.414062 177.527344 C 157.617188 177.785156 158.699219 178.230469 159.65625 178.851562 C 160.613281 179.472656 161.378906 180.292969 161.953125 181.3125 C 162.523438 182.332031 162.808594 183.601562 162.808594 185.117188 C 162.808594 186.90625 162.324219 188.410156 161.355469 189.628906 C 160.382812 190.847656 159.042969 191.71875 157.324219 192.242188 L 164.226562 203.542969 Z M 156.765625 203.542969 "/>
<path style=" stroke:none;fill-rule:nonzero;fill:rgb(100%,100%,100%);fill-opacity:1;" d="M 182.234375 183.996094 C 181.6875 183.300781 180.972656 182.746094 180.089844 182.339844 C 179.207031 181.929688 178.355469 181.722656 177.535156 181.722656 C 177.113281 181.722656 176.683594 181.761719 176.25 181.832031 C 175.8125 181.910156 175.421875 182.050781 175.074219 182.261719 C 174.722656 182.476562 174.433594 182.746094 174.195312 183.082031 C 173.960938 183.417969 173.84375 183.847656 173.84375 184.371094 C 173.84375 184.820312 173.933594 185.191406 174.121094 185.488281 C 174.308594 185.789062 174.582031 186.050781 174.945312 186.273438 C 175.304688 186.496094 175.734375 186.703125 176.230469 186.886719 C 176.726562 187.074219 177.285156 187.269531 177.90625 187.46875 C 178.804688 187.765625 179.734375 188.09375 180.707031 188.453125 C 181.675781 188.816406 182.558594 189.292969 183.351562 189.890625 C 184.148438 190.488281 184.808594 191.226562 185.332031 192.109375 C 185.851562 192.992188 186.113281 194.09375 186.113281 195.410156 C 186.113281 196.929688 185.835938 198.242188 185.277344 199.347656 C 184.714844 200.453125 183.960938 201.367188 183.015625 202.089844 C 182.074219 202.808594 180.992188 203.34375 179.773438 203.691406 C 178.554688 204.039062 177.296875 204.214844 176.003906 204.214844 C 174.117188 204.214844 172.289062 203.886719 170.523438 203.226562 C 168.757812 202.566406 167.289062 201.628906 166.121094 200.410156 L 170.296875 196.15625 C 170.945312 196.953125 171.796875 197.617188 172.855469 198.152344 C 173.910156 198.6875 174.960938 198.953125 176.003906 198.953125 C 176.476562 198.953125 176.9375 198.90625 177.386719 198.804688 C 177.832031 198.707031 178.226562 198.542969 178.5625 198.320312 C 178.898438 198.097656 179.164062 197.800781 179.363281 197.425781 C 179.5625 197.054688 179.664062 196.605469 179.664062 196.082031 C 179.664062 195.585938 179.535156 195.164062 179.289062 194.816406 C 179.039062 194.46875 178.683594 194.148438 178.226562 193.863281 C 177.765625 193.578125 177.195312 193.316406 176.507812 193.078125 C 175.824219 192.84375 175.046875 192.589844 174.179688 192.316406 C 173.332031 192.042969 172.503906 191.71875 171.699219 191.347656 C 170.890625 190.972656 170.167969 190.496094 169.535156 189.910156 C 168.902344 189.324219 168.390625 188.617188 168.003906 187.785156 C 167.621094 186.949219 167.425781 185.9375 167.425781 184.742188 C 167.425781 183.277344 167.722656 182.019531 168.320312 180.976562 C 168.917969 179.933594 169.703125 179.074219 170.671875 178.402344 C 171.640625 177.730469 172.734375 177.238281 173.953125 176.929688 C 175.171875 176.617188 176.40625 176.464844 177.648438 176.464844 C 179.136719 176.464844 180.664062 176.738281 182.214844 177.28125 C 183.769531 177.832031 185.132812 178.640625 186.300781 179.707031 Z M 182.234375 183.996094 "/>
<path style=" stroke:none;fill-rule:nonzero;fill:rgb(100%,100%,100%);fill-opacity:1;" d="M 114.160156 97.632812 L 140.570312 97.632812 L 140.570312 104.046875 L 119.71875 104.046875 L 119.71875 114.269531 L 114.160156 114.269531 Z M 114.160156 97.632812 "/>
<path style=" stroke:none;fill-rule:nonzero;fill:rgb(100%,100%,100%);fill-opacity:1;" d="M 133.519531 130.40625 L 124.457031 127.050781 L 124.457031 133.691406 Z M 114.160156 137.496094 L 119.34375 135.445312 L 119.34375 125.222656 L 114.160156 123.285156 L 114.160156 116.34375 L 140.570312 127.421875 L 140.570312 133.617188 L 114.160156 144.582031 Z M 114.160156 137.496094 "/>
<path style=" stroke:none;fill-rule:nonzero;fill:rgb(100%,100%,100%);fill-opacity:1;" d="M 114.160156 164.609375 L 131.429688 153.976562 L 131.429688 153.867188 L 114.160156 154.015625 L 114.160156 147.824219 L 140.570312 147.824219 L 140.570312 155.097656 L 123.335938 165.691406 L 123.335938 165.800781 L 140.570312 165.652344 L 140.570312 171.84375 L 114.160156 171.84375 Z M 114.160156 164.609375 "/>
<path style=" stroke:none;fill-rule:evenodd;fill:rgb(100%,100%,100%);fill-opacity:1;" d="M 245.804688 141.816406 C 241.207031 141.816406 237.476562 141.0625 237.476562 140.128906 C 237.476562 139.195312 241.207031 138.441406 245.804688 138.441406 C 250.40625 138.441406 254.132812 139.195312 254.132812 140.128906 C 254.132812 141.0625 250.40625 141.816406 245.804688 141.816406 M 256.496094 138.707031 L 256.488281 138.707031 C 256.480469 138.761719 256.457031 138.8125 256.4375 138.867188 C 255.886719 137.421875 251.421875 136.296875 245.996094 136.296875 C 240.570312 136.296875 236.105469 137.421875 235.554688 138.867188 C 235.539062 138.8125 235.511719 138.761719 235.503906 138.707031 L 235.496094 138.707031 L 235.496094 144.253906 L 235.503906 144.253906 C 235.5 144.285156 235.496094 144.320312 235.496094 144.351562 C 235.496094 145.941406 240.199219 147.226562 245.996094 147.226562 C 251.796875 147.226562 256.496094 145.941406 256.496094 144.351562 C 256.496094 144.320312 256.492188 144.285156 256.488281 144.253906 L 256.496094 144.253906 Z M 245.996094 149.828125 C 240.320312 149.828125 235.699219 148.597656 235.503906 147.054688 L 235.496094 147.054688 L 235.496094 152.601562 L 235.503906 152.601562 C 235.5 152.636719 235.496094 152.667969 235.496094 152.703125 C 235.496094 154.289062 240.199219 155.574219 245.996094 155.574219 C 251.796875 155.574219 256.496094 154.289062 256.496094 152.703125 C 256.496094 152.667969 256.492188 152.636719 256.488281 152.601562 L 256.496094 152.601562 L 256.496094 147.054688 L 256.488281 147.054688 C 256.296875 148.597656 251.675781 149.828125 245.996094 149.828125 M 245.996094 158 C 240.320312 158 235.699219 156.769531 235.503906 155.226562 L 235.496094 155.226562 L 235.496094 160.777344 L 235.503906 160.777344 C 235.5 160.808594 235.496094 160.839844 235.496094 160.875 C 235.496094 162.460938 240.199219 163.746094 245.996094 163.746094 C 251.796875 163.746094 256.496094 162.460938 256.496094 160.875 C 256.496094 160.839844 256.492188 160.808594 256.488281 160.777344 L 256.496094 160.777344 L 256.496094 155.226562 L 256.488281 155.226562 C 256.296875 156.769531 251.675781 158 245.996094 158 "/>
<path style=" stroke:none;fill-rule:nonzero;fill:rgb(100%,100%,100%);fill-opacity:1;" d="M 141.777344 248.773438 C 139.226562 248.808594 137.132812 246.769531 137.097656 244.21875 C 137.0625 241.671875 139.097656 239.574219 141.648438 239.539062 C 144.199219 239.503906 146.292969 241.539062 146.328125 244.089844 C 146.367188 246.640625 144.328125 248.734375 141.777344 248.773438 M 149.121094 246.246094 L 151.992188 245.292969 L 151.953125 242.792969 L 149.058594 241.863281 C 148.898438 241.347656 148.683594 240.859375 148.421875 240.398438 L 149.738281 237.648438 L 147.945312 235.90625 L 145.28125 237.339844 C 144.8125 237.09375 144.316406 236.890625 143.796875 236.746094 L 142.789062 233.878906 L 140.289062 233.914062 L 139.417969 236.808594 C 138.894531 236.972656 138.402344 237.191406 137.933594 237.457031 L 135.207031 236.085938 L 133.460938 237.878906 L 134.875 240.628906 C 134.640625 241.085938 134.449219 241.566406 134.304688 242.070312 L 131.4375 243.082031 L 131.472656 245.582031 L 134.371094 246.453125 C 134.53125 246.964844 134.746094 247.453125 135 247.910156 L 133.640625 250.617188 L 135.433594 252.359375 L 138.144531 250.96875 C 138.613281 251.214844 139.105469 251.417969 139.625 251.5625 L 140.574219 254.429688 L 143.078125 254.398438 L 144.003906 251.503906 C 144.511719 251.34375 144.996094 251.132812 145.453125 250.878906 L 148.175781 252.179688 L 149.917969 250.386719 L 148.503906 247.761719 C 148.761719 247.285156 148.96875 246.777344 149.121094 246.246094 "/>
<path style=" stroke:none;fill-rule:nonzero;fill:rgb(100%,100%,100%);fill-opacity:1;" d="M 161.828125 251.558594 C 161.191406 253.398438 159.179688 254.375 157.339844 253.734375 C 155.5 253.097656 154.527344 251.089844 155.164062 249.25 C 155.800781 247.410156 157.8125 246.433594 159.652344 247.074219 C 161.492188 247.710938 162.464844 249.71875 161.828125 251.558594 M 164.367188 250.671875 C 164.386719 250.261719 164.359375 249.851562 164.292969 249.453125 L 165.953125 247.820312 L 165.121094 246.101562 L 162.832031 246.4375 C 162.558594 246.140625 162.257812 245.867188 161.921875 245.625 L 161.945312 243.304688 L 160.136719 242.679688 L 158.761719 244.53125 C 158.34375 244.511719 157.929688 244.539062 157.527344 244.609375 L 155.925781 242.914062 L 154.207031 243.746094 L 154.503906 246.09375 C 154.214844 246.359375 153.953125 246.652344 153.71875 246.976562 L 151.398438 246.957031 L 150.769531 248.761719 L 152.625 250.140625 C 152.605469 250.550781 152.632812 250.957031 152.699219 251.351562 L 151.015625 252.941406 L 151.851562 254.660156 L 154.15625 254.367188 C 154.429688 254.667969 154.734375 254.941406 155.066406 255.179688 L 155.003906 257.488281 L 156.808594 258.113281 L 158.230469 256.277344 C 158.632812 256.296875 159.035156 256.269531 159.429688 256.207031 L 161.046875 257.851562 L 162.761719 257.015625 L 162.433594 254.765625 C 162.742188 254.488281 163.023438 254.175781 163.269531 253.832031 L 165.578125 253.898438 L 166.207031 252.09375 Z M 164.367188 250.671875 "/>
<path style=" stroke:none;fill-rule:nonzero;fill:rgb(100%,100%,100%);fill-opacity:1;" d="M 64.894531 142.742188 C 63.867188 143.71875 62.234375 143.675781 61.257812 142.648438 C 60.28125 141.617188 60.324219 139.984375 61.355469 139.011719 C 62.382812 138.035156 64.015625 138.078125 64.992188 139.105469 C 65.96875 140.136719 65.925781 141.765625 64.894531 142.742188 M 64.503906 157.503906 C 65.480469 158.535156 65.4375 160.164062 64.410156 161.140625 C 63.378906 162.117188 61.75 162.074219 60.773438 161.046875 C 59.796875 160.015625 59.839844 158.386719 60.867188 157.410156 C 61.898438 156.433594 63.527344 156.476562 64.503906 157.503906 M 42.859375 142.160156 C 41.882812 141.132812 41.925781 139.5 42.957031 138.523438 C 43.984375 137.550781 45.617188 137.59375 46.59375 138.621094 C 47.570312 139.648438 47.527344 141.28125 46.496094 142.257812 C 45.46875 143.234375 43.835938 143.191406 42.859375 142.160156 M 46.011719 160.65625 C 44.980469 161.632812 43.351562 161.589844 42.375 160.558594 C 41.398438 159.53125 41.441406 157.898438 42.46875 156.921875 C 43.5 155.949219 45.132812 155.992188 46.105469 157.019531 C 47.082031 158.046875 47.039062 159.679688 46.011719 160.65625 M 60.253906 137.316406 C 58.964844 138.359375 58.40625 139.925781 58.585938 141.425781 C 58.738281 142.6875 58.359375 143.960938 57.429688 144.832031 C 57.351562 144.90625 57.273438 144.980469 57.199219 145.050781 C 56.375 145.832031 55.011719 146.101562 53.765625 146.074219 C 52.519531 146.046875 51.078125 145.550781 50.386719 144.902344 C 50.375 144.894531 50.367188 144.886719 50.359375 144.878906 C 49.355469 143.933594 48.992188 142.535156 49.230469 141.179688 C 49.488281 139.691406 49.011719 138.097656 47.78125 136.988281 C 46.074219 135.449219 43.386719 135.449219 41.675781 136.984375 C 39.75 138.710938 39.640625 141.675781 41.40625 143.539062 C 42.441406 144.628906 43.878906 145.09375 45.261719 144.929688 C 46.570312 144.777344 47.878906 145.167969 48.785156 146.121094 L 48.808594 146.148438 C 49.660156 147.046875 49.953125 148.503906 49.925781 149.75 C 49.898438 150.996094 49.355469 152.558594 48.578125 153.296875 C 47.804688 154.03125 46.3125 154.511719 45.027344 154.289062 C 43.539062 154.027344 41.945312 154.503906 40.835938 155.734375 C 39.296875 157.441406 39.300781 160.128906 40.832031 161.839844 C 42.558594 163.765625 45.523438 163.875 47.386719 162.109375 C 48.476562 161.074219 48.945312 159.636719 48.78125 158.253906 C 48.625 156.949219 49.015625 155.636719 49.972656 154.730469 L 49.996094 154.707031 C 50.734375 154.007812 52.351562 153.5625 53.601562 153.589844 C 54.847656 153.617188 56.003906 154.046875 56.980469 154.765625 L 57.144531 154.9375 C 58.042969 155.882812 58.359375 157.203125 58.136719 158.488281 C 57.875 159.972656 58.351562 161.566406 59.585938 162.679688 C 61.289062 164.21875 63.980469 164.214844 65.691406 162.683594 C 67.617188 160.957031 67.726562 157.992188 65.957031 156.128906 C 64.925781 155.039062 63.484375 154.574219 62.101562 154.734375 C 60.796875 154.890625 59.488281 154.5 58.582031 153.542969 L 58.558594 153.519531 C 57.734375 152.648438 57.414062 151.164062 57.441406 149.917969 C 57.46875 148.671875 57.886719 147.226562 58.613281 146.535156 L 58.769531 146.386719 C 59.726562 145.480469 61.054688 145.160156 62.347656 145.382812 C 63.722656 145.617188 65.183594 145.226562 66.273438 144.195312 C 68.136719 142.425781 68.183594 139.460938 66.351562 137.636719 C 64.722656 136.011719 62.039062 135.871094 60.253906 137.316406 "/>
<path style=" stroke:none;fill-rule:nonzero;fill:rgb(100%,100%,100%);fill-opacity:1;" d="M 150.0625 55.507812 L 147.679688 54.316406 L 144.984375 57.683594 L 131 64.789062 C 131 64.789062 131.0625 59 131.074219 57.800781 C 131.085938 56.605469 131.28125 55.792969 132.300781 55.085938 C 133.542969 54.226562 142.992188 47.835938 144.976562 46.464844 C 147.582031 44.667969 147.351562 41.269531 150.214844 41.300781 C 153.074219 41.332031 152.773438 44.722656 155.339844 46.574219 C 157.292969 47.984375 166.605469 54.574219 167.832031 55.460938 C 168.832031 56.1875 169.011719 57.003906 169 58.203125 C 168.988281 59.402344 168.925781 65.1875 168.925781 65.1875 L 155.097656 57.789062 L 152.472656 54.367188 Z M 150.0625 55.507812 "/>
<path style=" stroke:none;fill-rule:nonzero;fill:rgb(13.699341%,12.199402%,12.5%);fill-opacity:1;" d="M 295.296875 94.84375 L 295.296875 63.984375 L 302.792969 63.984375 L 302.792969 88.347656 L 314.738281 88.347656 L 314.738281 94.84375 Z M 295.296875 94.84375 "/>
<path style=" stroke:none;fill-rule:nonzero;fill:rgb(13.699341%,12.199402%,12.5%);fill-opacity:1;" d="M 324.894531 94.84375 L 320.796875 94.84375 L 320.796875 74.183594 L 324.894531 74.183594 Z M 325.546875 66.730469 C 325.546875 67.484375 325.277344 68.109375 324.746094 68.605469 C 324.214844 69.097656 323.570312 69.34375 322.820312 69.34375 C 322.070312 69.34375 321.4375 69.089844 320.921875 68.582031 C 320.398438 68.074219 320.140625 67.457031 320.140625 66.730469 C 320.140625 65.972656 320.398438 65.34375 320.921875 64.832031 C 321.4375 64.324219 322.070312 64.070312 322.820312 64.070312 C 323.570312 64.070312 324.214844 64.324219 324.746094 64.832031 C 325.277344 65.34375 325.546875 65.972656 325.546875 66.730469 "/>
<path style=" stroke:none;fill-rule:nonzero;fill:rgb(13.699341%,12.199402%,12.5%);fill-opacity:1;" d="M 335.746094 74.183594 C 335.804688 74.707031 335.847656 75.292969 335.875 75.949219 C 335.90625 76.601562 335.921875 77.148438 335.921875 77.582031 L 336.050781 77.582031 C 336.3125 77.03125 336.667969 76.515625 337.117188 76.035156 C 337.570312 75.554688 338.085938 75.136719 338.667969 74.769531 C 339.246094 74.40625 339.886719 74.125 340.585938 73.921875 C 341.28125 73.71875 342.007812 73.617188 342.765625 73.617188 C 344.097656 73.617188 345.25 73.84375 346.207031 74.292969 C 347.167969 74.742188 347.964844 75.347656 348.605469 76.101562 C 349.242188 76.855469 349.714844 77.742188 350.019531 78.761719 C 350.324219 79.777344 350.476562 80.867188 350.476562 82.027344 L 350.476562 94.84375 L 346.382812 94.84375 L 346.382812 83.378906 C 346.382812 82.535156 346.316406 81.738281 346.183594 80.984375 C 346.054688 80.226562 345.8125 79.558594 345.464844 78.976562 C 345.117188 78.398438 344.636719 77.933594 344.027344 77.582031 C 343.417969 77.234375 342.632812 77.058594 341.675781 77.058594 C 340.046875 77.058594 338.71875 77.679688 337.683594 78.910156 C 336.652344 80.148438 336.136719 81.796875 336.136719 83.859375 L 336.136719 94.84375 L 332.039062 94.84375 L 332.039062 78.628906 C 332.039062 78.078125 332.023438 77.363281 331.996094 76.492188 C 331.96875 75.621094 331.925781 74.851562 331.867188 74.183594 Z M 335.746094 74.183594 "/>
<path style=" stroke:none;fill-rule:nonzero;fill:rgb(13.699341%,12.199402%,12.5%);fill-opacity:1;" d="M 361.59375 83.160156 L 361.726562 83.160156 L 370.398438 74.183594 L 375.890625 74.183594 L 366.214844 83.554688 L 376.71875 94.84375 L 371.050781 94.84375 L 361.726562 84.121094 L 361.59375 84.121094 L 361.59375 94.84375 L 357.496094 94.84375 L 357.496094 61.890625 L 361.59375 61.890625 Z M 361.59375 83.160156 "/>
<path style=" stroke:none;fill-rule:nonzero;fill:rgb(13.699341%,12.199402%,12.5%);fill-opacity:1;" d="M 394.722656 82.683594 C 394.691406 81.871094 394.554688 81.105469 394.308594 80.394531 C 394.0625 79.683594 393.699219 79.066406 393.21875 78.542969 C 392.738281 78.019531 392.144531 77.605469 391.429688 77.300781 C 390.71875 76.996094 389.882812 76.839844 388.921875 76.839844 C 388.050781 76.839844 387.230469 76.996094 386.460938 77.300781 C 385.691406 77.605469 385.023438 78.019531 384.457031 78.542969 C 383.890625 79.066406 383.425781 79.683594 383.0625 80.394531 C 382.699219 81.105469 382.488281 81.871094 382.429688 82.683594 Z M 398.90625 84.339844 L 398.90625 85.035156 C 398.90625 85.269531 398.890625 85.5 398.863281 85.734375 L 382.429688 85.734375 C 382.457031 86.601562 382.65625 87.414062 383.019531 88.179688 C 383.378906 88.945312 383.867188 89.609375 384.480469 90.171875 C 385.089844 90.734375 385.792969 91.171875 386.589844 91.492188 C 387.390625 91.808594 388.242188 91.96875 389.144531 91.96875 C 390.535156 91.96875 391.742188 91.660156 392.757812 91.050781 C 393.777344 90.441406 394.574219 89.699219 395.15625 88.828125 L 398.035156 91.140625 C 396.929688 92.605469 395.628906 93.679688 394.132812 94.375 C 392.636719 95.066406 390.972656 95.410156 389.144531 95.410156 C 387.574219 95.410156 386.117188 95.148438 384.785156 94.625 C 383.445312 94.101562 382.296875 93.371094 381.339844 92.425781 C 380.378906 91.480469 379.625 90.339844 379.074219 89.003906 C 378.519531 87.667969 378.246094 86.183594 378.246094 84.558594 C 378.246094 82.960938 378.515625 81.484375 379.050781 80.132812 C 379.589844 78.78125 380.339844 77.625 381.300781 76.667969 C 382.265625 75.707031 383.398438 74.960938 384.710938 74.421875 C 386.019531 73.886719 387.433594 73.617188 388.945312 73.617188 C 390.460938 73.617188 391.835938 73.863281 393.074219 74.359375 C 394.3125 74.851562 395.359375 75.5625 396.21875 76.492188 C 397.078125 77.421875 397.742188 78.550781 398.207031 79.871094 C 398.671875 81.195312 398.90625 82.683594 398.90625 84.339844 "/>
<path style=" stroke:none;fill-rule:nonzero;fill:rgb(13.699341%,12.199402%,12.5%);fill-opacity:1;" d="M 407.449219 84.492188 C 407.449219 85.449219 407.59375 86.375 407.886719 87.273438 C 408.175781 88.171875 408.609375 88.96875 409.191406 89.664062 C 409.773438 90.359375 410.484375 90.917969 411.328125 91.335938 C 412.171875 91.757812 413.160156 91.96875 414.292969 91.96875 C 415.339844 91.96875 416.292969 91.765625 417.148438 91.359375 C 418.003906 90.953125 418.738281 90.410156 419.347656 89.730469 C 419.960938 89.046875 420.429688 88.257812 420.765625 87.359375 C 421.097656 86.460938 421.265625 85.519531 421.265625 84.535156 C 421.265625 83.550781 421.097656 82.609375 420.765625 81.710938 C 420.429688 80.8125 419.960938 80.015625 419.347656 79.320312 C 418.738281 78.625 418.003906 78.074219 417.148438 77.667969 C 416.292969 77.261719 415.339844 77.058594 414.292969 77.058594 C 413.160156 77.058594 412.171875 77.261719 411.328125 77.667969 C 410.484375 78.074219 409.773438 78.625 409.191406 79.320312 C 408.609375 80.015625 408.175781 80.8125 407.886719 81.710938 C 407.59375 82.609375 407.449219 83.535156 407.449219 84.492188 M 421.050781 91.574219 C 420.265625 92.824219 419.195312 93.777344 417.84375 94.429688 C 416.496094 95.082031 415.078125 95.410156 413.59375 95.410156 C 411.996094 95.410156 410.558594 95.128906 409.28125 94.5625 C 408 93.992188 406.910156 93.21875 406.011719 92.230469 C 405.109375 91.242188 404.414062 90.078125 403.917969 88.742188 C 403.425781 87.40625 403.179688 85.980469 403.179688 84.46875 C 403.179688 82.960938 403.425781 81.542969 403.917969 80.21875 C 404.414062 78.898438 405.117188 77.742188 406.03125 76.753906 C 406.949219 75.765625 408.046875 74.996094 409.324219 74.445312 C 410.601562 73.894531 412.011719 73.617188 413.550781 73.617188 C 415.238281 73.617188 416.707031 73.972656 417.957031 74.683594 C 419.203125 75.398438 420.191406 76.261719 420.917969 77.277344 L 421.007812 77.277344 L 421.007812 61.890625 L 425.101562 61.890625 L 425.101562 94.84375 L 421.136719 94.84375 L 421.136719 91.574219 Z M 421.050781 91.574219 "/>
<path style=" stroke:none;fill-rule:nonzero;fill:rgb(13.699341%,12.199402%,12.5%);fill-opacity:1;" d="M 440.753906 85.953125 L 430.640625 85.953125 L 430.640625 82.507812 L 440.753906 82.507812 Z M 440.753906 85.953125 "/>
<path style=" stroke:none;fill-rule:nonzero;fill:rgb(13.699341%,12.199402%,12.5%);fill-opacity:1;" d="M 449.078125 84.492188 C 449.078125 85.449219 449.222656 86.375 449.515625 87.273438 C 449.804688 88.171875 450.238281 88.96875 450.820312 89.664062 C 451.402344 90.359375 452.113281 90.917969 452.957031 91.335938 C 453.800781 91.757812 454.789062 91.96875 455.921875 91.96875 C 456.96875 91.96875 457.917969 91.765625 458.777344 91.359375 C 459.632812 90.953125 460.367188 90.410156 460.976562 89.730469 C 461.589844 89.046875 462.058594 88.257812 462.394531 87.359375 C 462.726562 86.460938 462.894531 85.519531 462.894531 84.535156 C 462.894531 83.550781 462.726562 82.609375 462.394531 81.710938 C 462.058594 80.8125 461.589844 80.015625 460.976562 79.320312 C 460.367188 78.625 459.632812 78.074219 458.777344 77.667969 C 457.917969 77.261719 456.96875 77.058594 455.921875 77.058594 C 454.789062 77.058594 453.800781 77.261719 452.957031 77.667969 C 452.113281 78.074219 451.402344 78.625 450.820312 79.320312 C 450.238281 80.015625 449.804688 80.8125 449.515625 81.710938 C 449.222656 82.609375 449.078125 83.535156 449.078125 84.492188 M 462.679688 91.574219 C 461.890625 92.824219 460.824219 93.777344 459.472656 94.429688 C 458.121094 95.082031 456.707031 95.410156 455.222656 95.410156 C 453.625 95.410156 452.1875 95.128906 450.90625 94.5625 C 449.628906 93.992188 448.539062 93.21875 447.640625 92.230469 C 446.738281 91.242188 446.042969 90.078125 445.546875 88.742188 C 445.054688 87.40625 444.804688 85.980469 444.804688 84.46875 C 444.804688 82.960938 445.054688 81.542969 445.546875 80.21875 C 446.042969 78.898438 446.746094 77.742188 447.660156 76.753906 C 448.574219 75.765625 449.671875 74.996094 450.953125 74.445312 C 452.230469 73.894531 453.640625 73.617188 455.179688 73.617188 C 456.863281 73.617188 458.332031 73.972656 459.582031 74.683594 C 460.832031 75.398438 461.820312 76.261719 462.546875 77.277344 L 462.632812 77.277344 L 462.632812 61.890625 L 466.730469 61.890625 L 466.730469 94.84375 L 462.765625 94.84375 L 462.765625 91.574219 Z M 462.679688 91.574219 "/>
<path style=" stroke:none;fill-rule:nonzero;fill:rgb(13.699341%,12.199402%,12.5%);fill-opacity:1;" d="M 485.734375 84.992188 C 484.71875 84.992188 483.664062 85.035156 482.574219 85.125 C 481.484375 85.210938 480.496094 85.386719 479.613281 85.648438 C 478.722656 85.90625 477.992188 86.300781 477.410156 86.824219 C 476.828125 87.347656 476.539062 88.042969 476.539062 88.917969 C 476.539062 89.527344 476.660156 90.035156 476.910156 90.441406 C 477.15625 90.847656 477.480469 91.183594 477.890625 91.445312 C 478.296875 91.707031 478.746094 91.886719 479.242188 91.988281 C 479.734375 92.089844 480.242188 92.140625 480.765625 92.140625 C 482.683594 92.140625 484.160156 91.566406 485.191406 90.421875 C 486.222656 89.273438 486.738281 87.828125 486.738281 86.082031 L 486.738281 84.992188 Z M 486.738281 81.460938 C 486.738281 79.921875 486.273438 78.78125 485.34375 78.039062 C 484.414062 77.300781 483.175781 76.929688 481.636719 76.929688 C 480.476562 76.929688 479.378906 77.152344 478.347656 77.605469 C 477.316406 78.054688 476.453125 78.628906 475.753906 79.328125 L 473.574219 76.710938 C 474.589844 75.753906 475.832031 74.996094 477.300781 74.445312 C 478.769531 73.890625 480.34375 73.617188 482.03125 73.617188 C 483.511719 73.617188 484.796875 73.828125 485.886719 74.25 C 486.976562 74.671875 487.871094 75.246094 488.570312 75.96875 C 489.265625 76.695312 489.789062 77.554688 490.136719 78.542969 C 490.488281 79.53125 490.660156 80.589844 490.660156 81.722656 L 490.660156 90.746094 C 490.660156 91.445312 490.683594 92.179688 490.726562 92.949219 C 490.769531 93.71875 490.847656 94.351562 490.964844 94.84375 L 487.261719 94.84375 C 487.027344 93.855469 486.914062 92.867188 486.914062 91.878906 L 486.78125 91.878906 C 486.027344 92.984375 485.074219 93.84375 483.925781 94.453125 C 482.777344 95.0625 481.421875 95.367188 479.851562 95.367188 C 479.039062 95.367188 478.1875 95.257812 477.300781 95.039062 C 476.414062 94.820312 475.609375 94.46875 474.882812 93.972656 C 474.15625 93.476562 473.550781 92.824219 473.074219 92.011719 C 472.59375 91.199219 472.351562 90.195312 472.351562 89.003906 C 472.351562 87.433594 472.773438 86.191406 473.617188 85.277344 C 474.460938 84.359375 475.5625 83.664062 476.929688 83.183594 C 478.296875 82.703125 479.835938 82.390625 481.550781 82.246094 C 483.265625 82.101562 484.996094 82.027344 486.738281 82.027344 Z M 486.738281 81.460938 "/>
<path style=" stroke:none;fill-rule:nonzero;fill:rgb(13.699341%,12.199402%,12.5%);fill-opacity:1;" d="M 507.179688 77.539062 L 501.691406 77.539062 L 501.691406 88.273438 C 501.691406 89.519531 501.921875 90.410156 502.386719 90.945312 C 502.851562 91.480469 503.589844 91.75 504.609375 91.75 C 504.988281 91.75 505.394531 91.710938 505.828125 91.628906 C 506.265625 91.550781 506.660156 91.429688 507.007812 91.269531 L 507.136719 94.625 C 506.644531 94.800781 506.097656 94.9375 505.503906 95.039062 C 504.90625 95.140625 504.289062 95.191406 503.652344 95.191406 C 501.703125 95.191406 500.214844 94.65625 499.183594 93.582031 C 498.152344 92.503906 497.636719 90.894531 497.636719 88.742188 L 497.636719 77.539062 L 493.667969 77.539062 L 493.667969 74.183594 L 497.636719 74.183594 L 497.636719 68.253906 L 501.691406 68.253906 L 501.691406 74.183594 L 507.179688 74.183594 Z M 507.179688 77.539062 "/>
<path style=" stroke:none;fill-rule:nonzero;fill:rgb(13.699341%,12.199402%,12.5%);fill-opacity:1;" d="M 523.265625 84.992188 C 522.246094 84.992188 521.195312 85.035156 520.105469 85.125 C 519.015625 85.210938 518.027344 85.386719 517.140625 85.648438 C 516.253906 85.90625 515.523438 86.300781 514.941406 86.824219 C 514.359375 87.347656 514.070312 88.042969 514.070312 88.917969 C 514.070312 89.527344 514.191406 90.035156 514.441406 90.441406 C 514.6875 90.847656 515.011719 91.183594 515.417969 91.445312 C 515.828125 91.707031 516.277344 91.886719 516.773438 91.988281 C 517.265625 92.089844 517.773438 92.140625 518.296875 92.140625 C 520.214844 92.140625 521.691406 91.566406 522.71875 90.421875 C 523.75 89.273438 524.269531 87.828125 524.269531 86.082031 L 524.269531 84.992188 Z M 524.269531 81.460938 C 524.269531 79.921875 523.804688 78.78125 522.875 78.039062 C 521.945312 77.300781 520.707031 76.929688 519.167969 76.929688 C 518.003906 76.929688 516.910156 77.152344 515.878906 77.605469 C 514.84375 78.054688 513.980469 78.628906 513.285156 79.328125 L 511.105469 76.710938 C 512.121094 75.753906 513.363281 74.996094 514.832031 74.445312 C 516.296875 73.890625 517.875 73.617188 519.5625 73.617188 C 521.042969 73.617188 522.328125 73.828125 523.417969 74.25 C 524.507812 74.671875 525.402344 75.246094 526.097656 75.96875 C 526.796875 76.695312 527.320312 77.554688 527.667969 78.542969 C 528.019531 79.53125 528.191406 80.589844 528.191406 81.722656 L 528.191406 90.746094 C 528.191406 91.445312 528.210938 92.179688 528.257812 92.949219 C 528.300781 93.71875 528.378906 94.351562 528.496094 94.84375 L 524.792969 94.84375 C 524.558594 93.855469 524.441406 92.867188 524.441406 91.878906 L 524.3125 91.878906 C 523.554688 92.984375 522.605469 93.84375 521.457031 94.453125 C 520.308594 95.0625 518.949219 95.367188 517.382812 95.367188 C 516.566406 95.367188 515.71875 95.257812 514.832031 95.039062 C 513.945312 94.820312 513.136719 94.46875 512.410156 93.972656 C 511.6875 93.476562 511.082031 92.824219 510.605469 92.011719 C 510.125 91.199219 509.882812 90.195312 509.882812 89.003906 C 509.882812 87.433594 510.304688 86.191406 511.148438 85.277344 C 511.992188 84.359375 513.09375 83.664062 514.460938 83.183594 C 515.828125 82.703125 517.367188 82.390625 519.082031 82.246094 C 520.796875 82.101562 522.527344 82.027344 524.269531 82.027344 Z M 524.269531 81.460938 "/>
<path style=" stroke:none;fill-rule:nonzero;fill:rgb(13.699341%,12.199402%,12.5%);fill-opacity:1;" d="M 307.9375 119.960938 L 304.011719 130.554688 L 311.773438 130.554688 Z M 316.21875 142.585938 L 313.820312 136.527344 L 301.878906 136.527344 L 299.613281 142.585938 L 291.503906 142.585938 L 304.449219 111.722656 L 311.683594 111.722656 L 324.5 142.585938 Z M 316.21875 142.585938 "/>
<path style=" stroke:none;fill-rule:nonzero;fill:rgb(13.699341%,12.199402%,12.5%);fill-opacity:1;" d="M 334.136719 125.367188 L 338.710938 125.367188 C 339.757812 125.367188 340.722656 125.273438 341.609375 125.085938 C 342.496094 124.894531 343.257812 124.605469 343.898438 124.210938 C 344.535156 123.820312 345.03125 123.304688 345.378906 122.664062 C 345.730469 122.027344 345.902344 121.242188 345.902344 120.3125 C 345.902344 119.382812 345.722656 118.605469 345.359375 117.980469 C 344.996094 117.355469 344.5 116.84375 343.875 116.453125 C 343.25 116.0625 342.503906 115.785156 341.632812 115.625 C 340.761719 115.464844 339.816406 115.386719 338.796875 115.386719 L 334.136719 115.386719 Z M 329.820312 111.722656 L 339.234375 111.722656 C 340.890625 111.722656 342.402344 111.890625 343.769531 112.226562 C 345.132812 112.558594 346.296875 113.074219 347.253906 113.773438 C 348.214844 114.46875 348.953125 115.355469 349.476562 116.429688 C 350 117.507812 350.261719 118.800781 350.261719 120.3125 C 350.261719 121.851562 349.980469 123.171875 349.410156 124.277344 C 348.847656 125.382812 348.0625 126.28125 347.058594 126.980469 C 346.054688 127.675781 344.863281 128.195312 343.484375 128.527344 C 342.105469 128.863281 340.613281 129.027344 339.015625 129.027344 L 334.136719 129.027344 L 334.136719 142.585938 L 329.820312 142.585938 Z M 329.820312 111.722656 "/>
<path style=" stroke:none;fill-rule:nonzero;fill:rgb(13.699341%,12.199402%,12.5%);fill-opacity:1;" d="M 360.070312 142.585938 L 355.753906 142.585938 L 355.753906 111.722656 L 360.070312 111.722656 Z M 360.070312 142.585938 "/>
<path style=" stroke:none;fill-rule:nonzero;fill:rgb(13.699341%,12.199402%,12.5%);fill-opacity:1;" d="M 387.964844 125.28125 L 383.171875 125.28125 L 383.171875 142.585938 L 379.074219 142.585938 L 379.074219 125.28125 L 374.976562 125.28125 L 374.976562 121.921875 L 379.074219 121.921875 L 379.074219 117.609375 C 379.074219 116.386719 379.210938 115.261719 379.488281 114.230469 C 379.765625 113.199219 380.214844 112.304688 380.839844 111.550781 C 381.464844 110.792969 382.261719 110.199219 383.238281 109.761719 C 384.210938 109.324219 385.394531 109.109375 386.789062 109.109375 C 387.777344 109.109375 388.632812 109.210938 389.363281 109.414062 L 388.882812 112.945312 C 388.5625 112.855469 388.242188 112.785156 387.921875 112.726562 C 387.601562 112.667969 387.238281 112.640625 386.832031 112.640625 C 386.046875 112.640625 385.414062 112.777344 384.9375 113.054688 C 384.457031 113.328125 384.085938 113.699219 383.824219 114.164062 C 383.5625 114.628906 383.390625 115.160156 383.300781 115.753906 C 383.214844 116.351562 383.171875 116.96875 383.171875 117.609375 L 383.171875 121.921875 L 387.964844 121.921875 Z M 387.964844 125.28125 "/>
<path style=" stroke:none;fill-rule:nonzero;fill:rgb(13.699341%,12.199402%,12.5%);fill-opacity:1;" d="M 408.410156 132.230469 C 408.410156 131.246094 408.257812 130.304688 407.949219 129.40625 C 407.644531 128.507812 407.199219 127.71875 406.617188 127.039062 C 406.035156 126.355469 405.3125 125.816406 404.453125 125.410156 C 403.59375 125.003906 402.609375 124.800781 401.5 124.800781 C 400.390625 124.800781 399.40625 125.003906 398.550781 125.410156 C 397.6875 125.816406 396.96875 126.355469 396.382812 127.039062 C 395.800781 127.71875 395.355469 128.507812 395.050781 129.40625 C 394.746094 130.304688 394.59375 131.246094 394.59375 132.230469 C 394.59375 133.21875 394.746094 134.160156 395.050781 135.058594 C 395.355469 135.957031 395.800781 136.753906 396.382812 137.449219 C 396.96875 138.144531 397.6875 138.695312 398.550781 139.101562 C 399.40625 139.503906 400.390625 139.707031 401.5 139.707031 C 402.609375 139.707031 403.59375 139.503906 404.453125 139.101562 C 405.3125 138.695312 406.035156 138.144531 406.617188 137.449219 C 407.199219 136.753906 407.644531 135.957031 407.949219 135.058594 C 408.257812 134.160156 408.410156 133.21875 408.410156 132.230469 M 412.679688 132.210938 C 412.679688 133.808594 412.398438 135.277344 411.832031 136.613281 C 411.265625 137.949219 410.480469 139.105469 409.476562 140.078125 C 408.472656 141.050781 407.289062 141.808594 405.925781 142.34375 C 404.558594 142.882812 403.09375 143.152344 401.523438 143.152344 C 399.953125 143.152344 398.484375 142.882812 397.121094 142.34375 C 395.753906 141.808594 394.578125 141.050781 393.589844 140.078125 C 392.601562 139.105469 391.824219 137.949219 391.257812 136.613281 C 390.691406 135.277344 390.40625 133.808594 390.40625 132.210938 C 390.40625 130.613281 390.691406 129.152344 391.257812 127.832031 C 391.824219 126.507812 392.601562 125.367188 393.589844 124.410156 C 394.578125 123.449219 395.753906 122.703125 397.121094 122.164062 C 398.484375 121.625 399.953125 121.355469 401.523438 121.355469 C 403.09375 121.355469 404.558594 121.625 405.925781 122.164062 C 407.289062 122.703125 408.472656 123.449219 409.476562 124.410156 C 410.480469 125.367188 411.265625 126.507812 411.832031 127.832031 C 412.398438 129.152344 412.679688 130.613281 412.679688 132.210938 "/>
<path style=" stroke:none;fill-rule:nonzero;fill:rgb(13.699341%,12.199402%,12.5%);fill-opacity:1;" d="M 418.304688 124.234375 C 418.273438 123.363281 418.230469 122.59375 418.171875 121.925781 L 422.050781 121.925781 C 422.109375 122.445312 422.152344 123.050781 422.183594 123.734375 C 422.210938 124.414062 422.226562 124.976562 422.226562 125.410156 L 422.359375 125.410156 C 422.9375 124.191406 423.789062 123.210938 424.90625 122.46875 C 426.027344 121.726562 427.28125 121.355469 428.675781 121.355469 C 429.316406 121.355469 429.855469 121.414062 430.289062 121.53125 L 430.117188 125.324219 C 429.535156 125.179688 428.910156 125.105469 428.242188 125.105469 C 427.253906 125.105469 426.398438 125.289062 425.667969 125.652344 C 424.945312 126.015625 424.339844 126.5 423.863281 127.109375 C 423.382812 127.722656 423.027344 128.425781 422.792969 129.226562 C 422.5625 130.023438 422.445312 130.859375 422.445312 131.730469 L 422.445312 142.585938 L 418.347656 142.585938 L 418.347656 126.371094 C 418.347656 125.816406 418.332031 125.105469 418.304688 124.234375 "/>
<path style=" stroke:none;fill-rule:nonzero;fill:rgb(13.699341%,12.199402%,12.5%);fill-opacity:1;" d="M 314.910156 190.324219 L 302.488281 170.144531 L 302.355469 170.144531 L 302.53125 190.324219 L 295.296875 190.324219 L 295.296875 159.464844 L 303.796875 159.464844 L 316.175781 179.601562 L 316.308594 179.601562 L 316.132812 159.464844 L 323.367188 159.464844 L 323.367188 190.324219 Z M 314.910156 190.324219 "/>
<path style=" stroke:none;fill-rule:nonzero;fill:rgb(13.699341%,12.199402%,12.5%);fill-opacity:1;" d="M 346.296875 178.164062 C 346.265625 177.351562 346.128906 176.589844 345.882812 175.875 C 345.636719 175.164062 345.273438 174.546875 344.792969 174.023438 C 344.3125 173.5 343.71875 173.085938 343.003906 172.78125 C 342.292969 172.476562 341.457031 172.324219 340.496094 172.324219 C 339.625 172.324219 338.804688 172.476562 338.035156 172.78125 C 337.265625 173.085938 336.597656 173.5 336.03125 174.023438 C 335.464844 174.546875 335 175.164062 334.636719 175.875 C 334.273438 176.589844 334.0625 177.351562 334.003906 178.164062 Z M 350.480469 179.820312 L 350.480469 180.519531 C 350.480469 180.75 350.464844 180.984375 350.4375 181.214844 L 334.003906 181.214844 C 334.03125 182.082031 334.230469 182.898438 334.59375 183.660156 C 334.953125 184.425781 335.441406 185.089844 336.054688 185.652344 C 336.664062 186.214844 337.367188 186.65625 338.164062 186.972656 C 338.964844 187.289062 339.816406 187.449219 340.71875 187.449219 C 342.109375 187.449219 343.316406 187.144531 344.332031 186.53125 C 345.351562 185.921875 346.148438 185.183594 346.730469 184.308594 L 349.609375 186.621094 C 348.503906 188.085938 347.203125 189.164062 345.707031 189.855469 C 344.210938 190.546875 342.546875 190.894531 340.71875 190.894531 C 339.148438 190.894531 337.691406 190.632812 336.359375 190.109375 C 335.019531 189.585938 333.871094 188.851562 332.914062 187.90625 C 331.953125 186.960938 331.199219 185.820312 330.648438 184.484375 C 330.09375 183.148438 329.820312 181.667969 329.820312 180.039062 C 329.820312 178.441406 330.089844 176.964844 330.625 175.613281 C 331.164062 174.261719 331.914062 173.109375 332.875 172.148438 C 333.839844 171.191406 334.972656 170.441406 336.285156 169.902344 C 337.59375 169.367188 339.007812 169.097656 340.519531 169.097656 C 342.035156 169.097656 343.410156 169.34375 344.648438 169.839844 C 345.886719 170.332031 346.933594 171.046875 347.792969 171.976562 C 348.652344 172.90625 349.316406 174.03125 349.78125 175.351562 C 350.246094 176.675781 350.480469 178.164062 350.480469 179.820312 "/>
<path style=" stroke:none;fill-rule:nonzero;fill:rgb(13.699341%,12.199402%,12.5%);fill-opacity:1;" d="M 366.261719 173.019531 L 360.769531 173.019531 L 360.769531 183.753906 C 360.769531 185 361 185.890625 361.464844 186.425781 C 361.929688 186.964844 362.667969 187.230469 363.6875 187.230469 C 364.066406 187.230469 364.472656 187.191406 364.90625 187.109375 C 365.34375 187.03125 365.738281 186.910156 366.085938 186.75 L 366.214844 190.109375 C 365.722656 190.28125 365.175781 190.417969 364.582031 190.523438 C 363.984375 190.625 363.367188 190.675781 362.730469 190.675781 C 360.78125 190.675781 359.292969 190.136719 358.261719 189.0625 C 357.230469 187.988281 356.714844 186.375 356.714844 184.222656 L 356.714844 173.019531 L 352.746094 173.019531 L 352.746094 169.664062 L 356.714844 169.664062 L 356.714844 163.738281 L 360.769531 163.738281 L 360.769531 169.664062 L 366.261719 169.664062 Z M 366.261719 173.019531 "/>
<path style=" stroke:none;fill-rule:nonzero;fill:rgb(13.699341%,12.199402%,12.5%);fill-opacity:1;" d="M 372.015625 169.664062 L 376.675781 185.445312 L 376.765625 185.445312 L 381.691406 169.664062 L 386.003906 169.664062 L 391.019531 185.445312 L 391.105469 185.445312 L 395.769531 169.664062 L 400.085938 169.664062 L 393.242188 190.324219 L 388.96875 190.324219 L 383.871094 174.808594 L 383.78125 174.808594 L 378.726562 190.324219 L 374.453125 190.324219 L 367.566406 169.664062 Z M 372.015625 169.664062 "/>
<path style=" stroke:none;fill-rule:nonzero;fill:rgb(13.699341%,12.199402%,12.5%);fill-opacity:1;" d="M 420.832031 179.972656 C 420.832031 178.988281 420.679688 178.046875 420.375 177.148438 C 420.066406 176.25 419.625 175.460938 419.039062 174.78125 C 418.457031 174.097656 417.734375 173.554688 416.875 173.148438 C 416.015625 172.742188 415.03125 172.542969 413.925781 172.542969 C 412.816406 172.542969 411.832031 172.742188 410.972656 173.148438 C 410.113281 173.554688 409.390625 174.097656 408.808594 174.78125 C 408.226562 175.460938 407.78125 176.25 407.476562 177.148438 C 407.167969 178.046875 407.015625 178.988281 407.015625 179.972656 C 407.015625 180.957031 407.167969 181.902344 407.476562 182.796875 C 407.78125 183.695312 408.226562 184.492188 408.808594 185.1875 C 409.390625 185.882812 410.113281 186.433594 410.972656 186.839844 C 411.832031 187.246094 412.816406 187.449219 413.925781 187.449219 C 415.03125 187.449219 416.015625 187.246094 416.875 186.839844 C 417.734375 186.433594 418.457031 185.882812 419.039062 185.1875 C 419.625 184.492188 420.066406 183.695312 420.375 182.796875 C 420.679688 181.902344 420.832031 180.957031 420.832031 179.972656 M 425.105469 179.953125 C 425.105469 181.550781 424.820312 183.015625 424.253906 184.355469 C 423.6875 185.691406 422.902344 186.847656 421.902344 187.820312 C 420.898438 188.792969 419.714844 189.546875 418.347656 190.085938 C 416.980469 190.625 415.515625 190.890625 413.945312 190.890625 C 412.378906 190.890625 410.910156 190.625 409.542969 190.085938 C 408.179688 189.546875 407 188.792969 406.011719 187.820312 C 405.023438 186.847656 404.246094 185.691406 403.679688 184.355469 C 403.113281 183.015625 402.832031 181.550781 402.832031 179.953125 C 402.832031 178.351562 403.113281 176.894531 403.679688 175.570312 C 404.246094 174.25 405.023438 173.109375 406.011719 172.148438 C 407 171.191406 408.179688 170.441406 409.542969 169.902344 C 410.910156 169.367188 412.378906 169.097656 413.945312 169.097656 C 415.515625 169.097656 416.980469 169.367188 418.347656 169.902344 C 419.714844 170.441406 420.898438 171.191406 421.902344 172.148438 C 422.902344 173.109375 423.6875 174.25 424.253906 175.570312 C 424.820312 176.894531 425.105469 178.351562 425.105469 179.953125 "/>
<path style=" stroke:none;fill-rule:nonzero;fill:rgb(13.699341%,12.199402%,12.5%);fill-opacity:1;" d="M 430.726562 171.972656 C 430.699219 171.101562 430.65625 170.332031 430.597656 169.664062 L 434.476562 169.664062 C 434.535156 170.1875 434.578125 170.789062 434.605469 171.472656 C 434.636719 172.15625 434.652344 172.714844 434.652344 173.152344 L 434.78125 173.152344 C 435.363281 171.929688 436.210938 170.949219 437.332031 170.207031 C 438.449219 169.46875 439.707031 169.097656 441.101562 169.097656 C 441.742188 169.097656 442.277344 169.15625 442.714844 169.273438 L 442.539062 173.066406 C 441.957031 172.917969 441.332031 172.847656 440.664062 172.847656 C 439.675781 172.847656 438.820312 173.027344 438.09375 173.390625 C 437.367188 173.753906 436.765625 174.242188 436.285156 174.851562 C 435.804688 175.460938 435.449219 176.167969 435.214844 176.964844 C 434.984375 177.765625 434.867188 178.597656 434.867188 179.472656 L 434.867188 190.324219 L 430.769531 190.324219 L 430.769531 174.109375 C 430.769531 173.558594 430.753906 172.847656 430.726562 171.972656 "/>
<path style=" stroke:none;fill-rule:nonzero;fill:rgb(13.699341%,12.199402%,12.5%);fill-opacity:1;" d="M 450.734375 178.644531 L 450.867188 178.644531 L 459.539062 169.664062 L 465.03125 169.664062 L 455.355469 179.035156 L 465.859375 190.324219 L 460.195312 190.324219 L 450.867188 179.601562 L 450.734375 179.601562 L 450.734375 190.324219 L 446.636719 190.324219 L 446.636719 157.371094 L 450.734375 157.371094 Z M 450.734375 178.644531 "/>
<path style=" stroke:none;fill-rule:nonzero;fill:rgb(13.699341%,12.199402%,12.5%);fill-opacity:1;" d="M 483.863281 178.164062 C 483.832031 177.351562 483.695312 176.589844 483.449219 175.875 C 483.203125 175.164062 482.839844 174.546875 482.359375 174.023438 C 481.878906 173.5 481.285156 173.085938 480.570312 172.78125 C 479.859375 172.476562 479.023438 172.324219 478.0625 172.324219 C 477.191406 172.324219 476.371094 172.476562 475.601562 172.78125 C 474.832031 173.085938 474.164062 173.5 473.597656 174.023438 C 473.03125 174.546875 472.566406 175.164062 472.203125 175.875 C 471.839844 176.589844 471.628906 177.351562 471.570312 178.164062 Z M 488.046875 179.820312 L 488.046875 180.519531 C 488.046875 180.75 488.03125 180.984375 488.003906 181.214844 L 471.570312 181.214844 C 471.597656 182.082031 471.796875 182.898438 472.160156 183.660156 C 472.519531 184.425781 473.007812 185.089844 473.621094 185.652344 C 474.230469 186.214844 474.933594 186.65625 475.730469 186.972656 C 476.53125 187.289062 477.382812 187.449219 478.285156 187.449219 C 479.675781 187.449219 480.882812 187.144531 481.898438 186.53125 C 482.917969 185.921875 483.714844 185.183594 484.296875 184.308594 L 487.175781 186.621094 C 486.070312 188.085938 484.769531 189.164062 483.273438 189.855469 C 481.777344 190.546875 480.113281 190.894531 478.285156 190.894531 C 476.714844 190.894531 475.257812 190.632812 473.925781 190.109375 C 472.585938 189.585938 471.4375 188.851562 470.480469 187.90625 C 469.519531 186.960938 468.765625 185.820312 468.214844 184.484375 C 467.660156 183.148438 467.386719 181.667969 467.386719 180.039062 C 467.386719 178.441406 467.65625 176.964844 468.191406 175.613281 C 468.730469 174.261719 469.480469 173.109375 470.441406 172.148438 C 471.40625 171.191406 472.539062 170.441406 473.851562 169.902344 C 475.160156 169.367188 476.574219 169.097656 478.085938 169.097656 C 479.601562 169.097656 480.976562 169.34375 482.214844 169.839844 C 483.453125 170.332031 484.5 171.046875 485.359375 171.976562 C 486.21875 172.90625 486.882812 174.03125 487.347656 175.351562 C 487.8125 176.675781 488.046875 178.164062 488.046875 179.820312 "/>
<path style=" stroke:none;fill-rule:nonzero;fill:rgb(13.699341%,12.199402%,12.5%);fill-opacity:1;" d="M 496.589844 179.972656 C 496.589844 180.929688 496.734375 181.855469 497.027344 182.753906 C 497.316406 183.652344 497.75 184.449219 498.332031 185.144531 C 498.914062 185.839844 499.625 186.398438 500.46875 186.820312 C 501.3125 187.238281 502.300781 187.449219 503.433594 187.449219 C 504.480469 187.449219 505.433594 187.246094 506.289062 186.839844 C 507.144531 186.433594 507.878906 185.890625 508.488281 185.210938 C 509.101562 184.53125 509.570312 183.738281 509.90625 182.84375 C 510.238281 181.945312 510.40625 181.003906 510.40625 180.015625 C 510.40625 179.03125 510.238281 178.089844 509.90625 177.191406 C 509.570312 176.292969 509.101562 175.496094 508.488281 174.800781 C 507.878906 174.105469 507.144531 173.554688 506.289062 173.148438 C 505.433594 172.742188 504.480469 172.542969 503.433594 172.542969 C 502.300781 172.542969 501.3125 172.742188 500.46875 173.148438 C 499.625 173.554688 498.914062 174.105469 498.332031 174.800781 C 497.75 175.496094 497.316406 176.292969 497.027344 177.191406 C 496.734375 178.089844 496.589844 179.015625 496.589844 179.972656 M 510.191406 187.054688 C 509.40625 188.304688 508.335938 189.257812 506.984375 189.910156 C 505.636719 190.566406 504.21875 190.890625 502.734375 190.890625 C 501.136719 190.890625 499.699219 190.609375 498.421875 190.042969 C 497.140625 189.476562 496.050781 188.699219 495.152344 187.710938 C 494.25 186.722656 493.554688 185.558594 493.058594 184.222656 C 492.566406 182.886719 492.320312 181.464844 492.320312 179.953125 C 492.320312 178.441406 492.566406 177.023438 493.058594 175.703125 C 493.554688 174.378906 494.257812 173.222656 495.171875 172.234375 C 496.089844 171.25 497.1875 170.476562 498.464844 169.925781 C 499.742188 169.375 501.152344 169.097656 502.691406 169.097656 C 504.378906 169.097656 505.847656 169.453125 507.097656 170.164062 C 508.34375 170.878906 509.332031 171.742188 510.058594 172.757812 L 510.148438 172.757812 L 510.148438 157.371094 L 514.242188 157.371094 L 514.242188 190.324219 L 510.277344 190.324219 L 510.277344 187.054688 Z M 510.191406 187.054688 "/>
<path style=" stroke:none;fill-rule:nonzero;fill:rgb(13.699341%,12.199402%,12.5%);fill-opacity:1;" d="M 316.347656 222.546875 C 316.347656 220.804688 316.066406 219.359375 315.5 218.210938 C 314.933594 217.0625 314.175781 216.148438 313.234375 215.464844 C 312.289062 214.78125 311.210938 214.296875 310.007812 214.003906 C 308.800781 213.714844 307.558594 213.570312 306.28125 213.570312 L 302.578125 213.570312 L 302.578125 231.613281 L 306.105469 231.613281 C 307.441406 231.613281 308.730469 231.460938 309.964844 231.15625 C 311.199219 230.851562 312.289062 230.351562 313.234375 229.652344 C 314.175781 228.957031 314.933594 228.027344 315.5 226.863281 C 316.066406 225.703125 316.347656 224.265625 316.347656 222.546875 M 324.109375 222.546875 C 324.109375 225.25 323.609375 227.582031 322.605469 229.542969 C 321.601562 231.507812 320.28125 233.117188 318.636719 234.382812 C 316.996094 235.648438 315.144531 236.578125 313.082031 237.171875 C 311.015625 237.769531 308.925781 238.066406 306.804688 238.066406 L 295.296875 238.066406 L 295.296875 207.203125 L 306.453125 207.203125 C 308.632812 207.203125 310.785156 207.460938 312.90625 207.96875 C 315.027344 208.476562 316.917969 209.320312 318.574219 210.496094 C 320.230469 211.671875 321.566406 213.25 322.582031 215.226562 C 323.597656 217.203125 324.109375 219.644531 324.109375 222.546875 "/>
<path style=" stroke:none;fill-rule:nonzero;fill:rgb(13.699341%,12.199402%,12.5%);fill-opacity:1;" d="M 345.25 216.664062 C 345.25 215.9375 345.09375 215.351562 344.789062 214.898438 C 344.480469 214.449219 344.089844 214.101562 343.605469 213.851562 C 343.125 213.605469 342.585938 213.4375 341.984375 213.351562 C 341.386719 213.265625 340.808594 213.222656 340.253906 213.222656 L 336.269531 213.222656 L 336.269531 220.414062 L 339.816406 220.414062 C 340.429688 220.414062 341.058594 220.363281 341.699219 220.261719 C 342.34375 220.160156 342.925781 219.976562 343.453125 219.714844 C 343.976562 219.453125 344.410156 219.078125 344.746094 218.582031 C 345.082031 218.089844 345.25 217.449219 345.25 216.664062 M 345.554688 238.066406 L 338.851562 225.816406 L 336.3125 225.816406 L 336.3125 238.066406 L 329.03125 238.066406 L 329.03125 207.207031 L 340.804688 207.207031 C 342.285156 207.207031 343.730469 207.359375 345.140625 207.664062 C 346.550781 207.96875 347.8125 208.484375 348.933594 209.210938 C 350.050781 209.9375 350.945312 210.894531 351.613281 212.085938 C 352.28125 213.277344 352.613281 214.761719 352.613281 216.53125 C 352.613281 218.625 352.050781 220.382812 350.914062 221.808594 C 349.78125 223.230469 348.214844 224.25 346.207031 224.859375 L 354.269531 238.066406 Z M 345.554688 238.066406 "/>
<path style=" stroke:none;fill-rule:nonzero;fill:rgb(13.699341%,12.199402%,12.5%);fill-opacity:1;" d="M 376.023438 227.714844 C 376.023438 226.730469 375.871094 225.785156 375.5625 224.890625 C 375.257812 223.992188 374.8125 223.203125 374.230469 222.519531 C 373.648438 221.839844 372.925781 221.296875 372.066406 220.890625 C 371.207031 220.484375 370.222656 220.28125 369.113281 220.28125 C 368.003906 220.28125 367.023438 220.484375 366.164062 220.890625 C 365.300781 221.296875 364.582031 221.839844 363.996094 222.519531 C 363.414062 223.203125 362.96875 223.992188 362.664062 224.890625 C 362.359375 225.785156 362.207031 226.730469 362.207031 227.714844 C 362.207031 228.699219 362.359375 229.640625 362.664062 230.539062 C 362.96875 231.4375 363.414062 232.234375 363.996094 232.929688 C 364.582031 233.625 365.300781 234.175781 366.164062 234.582031 C 367.023438 234.988281 368.003906 235.191406 369.113281 235.191406 C 370.222656 235.191406 371.207031 234.988281 372.066406 234.582031 C 372.925781 234.175781 373.648438 233.625 374.230469 232.929688 C 374.8125 232.234375 375.257812 231.4375 375.5625 230.539062 C 375.871094 229.640625 376.023438 228.699219 376.023438 227.714844 M 380.292969 227.691406 C 380.292969 229.289062 380.011719 230.757812 379.445312 232.09375 C 378.878906 233.433594 378.09375 234.585938 377.089844 235.558594 C 376.085938 236.535156 374.902344 237.289062 373.539062 237.828125 C 372.171875 238.363281 370.707031 238.632812 369.136719 238.632812 C 367.566406 238.632812 366.097656 238.363281 364.734375 237.828125 C 363.367188 237.289062 362.191406 236.535156 361.203125 235.558594 C 360.214844 234.585938 359.4375 233.433594 358.871094 232.09375 C 358.304688 230.757812 358.019531 229.289062 358.019531 227.691406 C 358.019531 226.09375 358.304688 224.632812 358.871094 223.3125 C 359.4375 221.988281 360.214844 220.847656 361.203125 219.890625 C 362.191406 218.929688 363.367188 218.183594 364.734375 217.644531 C 366.097656 217.109375 367.566406 216.839844 369.136719 216.839844 C 370.707031 216.839844 372.171875 217.109375 373.539062 217.644531 C 374.902344 218.183594 376.085938 218.929688 377.089844 219.890625 C 378.09375 220.847656 378.878906 221.988281 379.445312 223.3125 C 380.011719 224.632812 380.292969 226.09375 380.292969 227.691406 "/>
<path style=" stroke:none;fill-rule:nonzero;fill:rgb(13.699341%,12.199402%,12.5%);fill-opacity:1;" d="M 389.664062 217.40625 C 389.722656 217.929688 389.765625 218.515625 389.796875 219.171875 C 389.824219 219.824219 389.839844 220.371094 389.839844 220.804688 L 389.972656 220.804688 C 390.230469 220.253906 390.589844 219.738281 391.039062 219.257812 C 391.488281 218.777344 392.003906 218.355469 392.585938 217.992188 C 393.167969 217.628906 393.808594 217.347656 394.503906 217.144531 C 395.199219 216.941406 395.929688 216.839844 396.683594 216.839844 C 398.019531 216.839844 399.167969 217.0625 400.128906 217.515625 C 401.085938 217.964844 401.886719 218.566406 402.523438 219.324219 C 403.164062 220.078125 403.636719 220.964844 403.941406 221.980469 C 404.246094 223 404.398438 224.089844 404.398438 225.25 L 404.398438 238.066406 L 400.300781 238.066406 L 400.300781 226.601562 C 400.300781 225.757812 400.234375 224.960938 400.105469 224.207031 C 399.976562 223.449219 399.734375 222.78125 399.386719 222.199219 C 399.035156 221.621094 398.558594 221.15625 397.945312 220.804688 C 397.335938 220.457031 396.554688 220.28125 395.59375 220.28125 C 393.964844 220.28125 392.636719 220.898438 391.605469 222.132812 C 390.574219 223.371094 390.058594 225.019531 390.058594 227.082031 L 390.058594 238.066406 L 385.960938 238.066406 L 385.960938 221.851562 C 385.960938 221.300781 385.945312 220.585938 385.917969 219.714844 C 385.886719 218.84375 385.84375 218.074219 385.785156 217.40625 Z M 389.664062 217.40625 "/>
<path style=" stroke:none;fill-rule:nonzero;fill:rgb(13.699341%,12.199402%,12.5%);fill-opacity:1;" d="M 426.453125 225.90625 C 426.425781 225.09375 426.285156 224.328125 426.039062 223.617188 C 425.792969 222.90625 425.429688 222.285156 424.949219 221.765625 C 424.472656 221.242188 423.875 220.828125 423.164062 220.523438 C 422.449219 220.21875 421.613281 220.0625 420.65625 220.0625 C 419.785156 220.0625 418.964844 220.21875 418.195312 220.523438 C 417.425781 220.828125 416.757812 221.242188 416.1875 221.765625 C 415.621094 222.285156 415.15625 222.90625 414.792969 223.617188 C 414.429688 224.328125 414.21875 225.09375 414.160156 225.90625 Z M 430.640625 227.5625 L 430.640625 228.257812 C 430.640625 228.492188 430.625 228.722656 430.59375 228.957031 L 414.160156 228.957031 C 414.191406 229.824219 414.386719 230.636719 414.75 231.402344 C 415.113281 232.167969 415.601562 232.832031 416.210938 233.394531 C 416.820312 233.957031 417.523438 234.398438 418.324219 234.714844 C 419.125 235.03125 419.972656 235.191406 420.875 235.191406 C 422.269531 235.191406 423.476562 234.886719 424.492188 234.273438 C 425.511719 233.664062 426.308594 232.921875 426.890625 232.050781 L 429.765625 234.363281 C 428.660156 235.824219 427.363281 236.902344 425.863281 237.597656 C 424.367188 238.285156 422.707031 238.632812 420.875 238.632812 C 419.304688 238.632812 417.851562 238.371094 416.515625 237.847656 C 415.179688 237.324219 414.03125 236.59375 413.070312 235.648438 C 412.113281 234.703125 411.355469 233.5625 410.804688 232.226562 C 410.253906 230.890625 409.976562 229.40625 409.976562 227.78125 C 409.976562 226.183594 410.246094 224.707031 410.785156 223.355469 C 411.324219 222.003906 412.074219 220.847656 413.035156 219.890625 C 413.996094 218.929688 415.132812 218.183594 416.441406 217.644531 C 417.753906 217.109375 419.164062 216.839844 420.679688 216.839844 C 422.191406 216.839844 423.570312 217.085938 424.808594 217.578125 C 426.046875 218.074219 427.09375 218.785156 427.953125 219.714844 C 428.8125 220.644531 429.472656 221.773438 429.9375 223.09375 C 430.40625 224.414062 430.640625 225.90625 430.640625 227.5625 "/>
<path style=" stroke:none;fill-rule:nonzero;fill:rgb(13.699341%,12.199402%,12.5%);fill-opacity:1;" d="M 454.4375 215.226562 C 453.796875 214.414062 452.960938 213.765625 451.933594 213.285156 C 450.902344 212.804688 449.90625 212.566406 448.945312 212.566406 C 448.453125 212.566406 447.949219 212.609375 447.441406 212.699219 C 446.933594 212.785156 446.476562 212.953125 446.070312 213.199219 C 445.664062 213.445312 445.320312 213.765625 445.042969 214.15625 C 444.769531 214.550781 444.628906 215.050781 444.628906 215.660156 C 444.628906 216.183594 444.742188 216.621094 444.957031 216.96875 C 445.175781 217.316406 445.496094 217.621094 445.917969 217.882812 C 446.335938 218.144531 446.839844 218.386719 447.421875 218.605469 C 448 218.820312 448.65625 219.046875 449.382812 219.28125 C 450.429688 219.628906 451.515625 220.011719 452.652344 220.433594 C 453.785156 220.855469 454.816406 221.414062 455.746094 222.113281 C 456.675781 222.808594 457.445312 223.675781 458.054688 224.707031 C 458.667969 225.738281 458.972656 227.023438 458.972656 228.5625 C 458.972656 230.335938 458.644531 231.871094 457.992188 233.164062 C 457.335938 234.457031 456.457031 235.523438 455.351562 236.367188 C 454.25 237.210938 452.984375 237.832031 451.5625 238.242188 C 450.136719 238.648438 448.667969 238.851562 447.160156 238.851562 C 444.949219 238.851562 442.816406 238.464844 440.75 237.695312 C 438.6875 236.925781 436.972656 235.828125 435.609375 234.40625 L 440.492188 229.4375 C 441.246094 230.367188 442.242188 231.144531 443.476562 231.769531 C 444.710938 232.394531 445.9375 232.703125 447.160156 232.703125 C 447.710938 232.703125 448.25 232.648438 448.773438 232.53125 C 449.292969 232.414062 449.753906 232.226562 450.144531 231.964844 C 450.539062 231.703125 450.847656 231.355469 451.082031 230.917969 C 451.316406 230.480469 451.429688 229.957031 451.429688 229.347656 C 451.429688 228.769531 451.285156 228.273438 450.996094 227.867188 C 450.703125 227.460938 450.289062 227.089844 449.753906 226.753906 C 449.214844 226.421875 448.546875 226.117188 447.75 225.839844 C 446.949219 225.5625 446.039062 225.265625 445.023438 224.945312 C 444.035156 224.625 443.070312 224.25 442.125 223.8125 C 441.179688 223.375 440.335938 222.816406 439.597656 222.132812 C 438.855469 221.453125 438.257812 220.625 437.808594 219.648438 C 437.359375 218.675781 437.132812 217.492188 437.132812 216.097656 C 437.132812 214.382812 437.484375 212.914062 438.179688 211.695312 C 438.875 210.472656 439.792969 209.472656 440.925781 208.6875 C 442.058594 207.902344 443.335938 207.328125 444.761719 206.964844 C 446.183594 206.601562 447.625 206.421875 449.078125 206.421875 C 450.820312 206.421875 452.601562 206.742188 454.417969 207.378906 C 456.234375 208.019531 457.824219 208.964844 459.191406 210.210938 Z M 454.4375 215.226562 "/>
</g>
</svg>
