<?xml version="1.0" encoding="UTF-8"?>
<svg xmlns="http://www.w3.org/2000/svg" xmlns:xlink="http://www.w3.org/1999/xlink" width="300pt" height="300pt" viewBox="0 0 300 300" version="1.1">
<g id="surface1">
<path style=" stroke:none;fill-rule:nonzero;fill:rgb(94.099426%,48.999023%,12.5%);fill-opacity:1;" d="M 260 150 C 260 210.75 210.75 260 150 260 C 89.25 260 40 210.75 40 150 C 40 89.25 89.25 40 150 40 C 210.75 40 260 89.25 260 150 "/>
<path style=" stroke:none;fill-rule:nonzero;fill:rgb(13.699341%,12.199402%,12.5%);fill-opacity:1;" d="M 169.445312 258.285156 L 178.445312 232.21875 C 203.574219 223.5 223.5 203.570312 232.21875 178.445312 L 258.285156 169.445312 C 250.230469 214.609375 214.609375 250.230469 169.445312 258.285156 M 41.714844 169.445312 L 67.78125 178.445312 C 76.5 203.570312 96.429688 223.5 121.554688 232.21875 L 130.554688 258.285156 C 85.390625 250.230469 49.769531 214.609375 41.714844 169.445312 M 130.554688 41.714844 L 121.554688 67.78125 C 96.429688 76.5 76.5 96.425781 67.78125 121.554688 L 41.714844 130.554688 C 49.769531 85.390625 85.390625 49.769531 130.554688 41.714844 M 150 225 C 108.578125 225 75 191.421875 75 150 C 75 108.578125 108.578125 75 150 75 C 191.421875 75 225 108.578125 225 150 C 225 191.421875 191.421875 225 150 225 M 258.285156 130.554688 L 232.21875 121.554688 C 223.5 96.425781 203.574219 76.5 178.445312 67.78125 L 169.445312 41.714844 C 214.609375 49.769531 250.230469 85.390625 258.285156 130.554688 M 233.4375 66.5625 C 211.152344 44.273438 181.519531 32 150 32 C 118.480469 32 88.847656 44.273438 66.5625 66.5625 C 44.273438 88.847656 32 118.480469 32 150 C 32 181.519531 44.273438 211.152344 66.5625 233.4375 C 88.847656 255.726562 118.480469 268 150 268 C 181.519531 268 211.152344 255.726562 233.4375 233.4375 C 255.726562 211.152344 268 181.519531 268 150 C 268 118.480469 255.726562 88.847656 233.4375 66.5625 "/>
<path style=" stroke:none;fill-rule:nonzero;fill:rgb(13.699341%,12.199402%,12.5%);fill-opacity:1;" d="M 147.128906 171.167969 L 147.128906 92.605469 C 147.128906 91.996094 146.632812 91.5 146.019531 91.5 L 109.480469 91.5 C 108.871094 91.5 108.375 91.996094 108.375 92.605469 L 108.375 207.394531 C 108.375 208.003906 108.871094 208.5 109.480469 208.5 L 190.519531 208.5 C 191.128906 208.5 191.625 208.003906 191.625 207.394531 L 191.625 173.382812 C 191.625 172.769531 191.128906 172.273438 190.519531 172.273438 L 148.234375 172.273438 C 147.625 172.273438 147.128906 171.777344 147.128906 171.167969 "/>
<path style=" stroke:none;fill-rule:nonzero;fill:rgb(13.699341%,12.199402%,12.5%);fill-opacity:1;" d="M 163.664062 126.097656 C 162.902344 126.066406 162.152344 126.355469 161.609375 126.898438 C 161.128906 127.382812 160.84375 128.03125 160.808594 128.730469 C 160.78125 129.464844 161.039062 130.160156 161.535156 130.699219 C 162.03125 131.238281 162.710938 131.550781 163.441406 131.578125 C 165.769531 131.671875 167.953125 132.628906 169.597656 134.273438 C 171.507812 136.183594 172.480469 138.824219 172.265625 141.523438 C 172.207031 142.257812 172.4375 142.96875 172.914062 143.527344 C 173.390625 144.082031 174.054688 144.421875 174.785156 144.476562 C 174.859375 144.480469 174.929688 144.484375 175 144.484375 C 176.425781 144.484375 177.609375 143.414062 177.738281 141.960938 C 178.074219 137.65625 176.523438 133.4375 173.476562 130.394531 C 170.851562 127.769531 167.367188 126.242188 163.664062 126.097656 "/>
<path style=" stroke:none;fill-rule:nonzero;fill:rgb(13.699341%,12.199402%,12.5%);fill-opacity:1;" d="M 163.566406 114.675781 C 162.792969 114.652344 162.105469 114.945312 161.574219 115.476562 C 161.074219 115.976562 160.785156 116.648438 160.765625 117.371094 C 160.75 118.878906 161.957031 120.128906 163.460938 120.15625 C 168.839844 120.261719 173.890625 122.40625 177.683594 126.199219 C 181.746094 130.261719 183.941406 135.878906 183.714844 141.617188 C 183.683594 142.351562 183.941406 143.050781 184.441406 143.589844 C 184.9375 144.125 185.617188 144.4375 186.34375 144.464844 C 186.386719 144.46875 186.429688 144.46875 186.46875 144.46875 C 187.148438 144.46875 187.796875 144.214844 188.304688 143.75 C 188.851562 143.246094 189.167969 142.566406 189.199219 141.832031 C 189.484375 134.570312 186.703125 127.457031 181.5625 122.324219 C 176.753906 117.511719 170.359375 114.796875 163.566406 114.675781 "/>
<path style=" stroke:none;fill-rule:nonzero;fill:rgb(13.699341%,12.199402%,12.5%);fill-opacity:1;" d="M 189.832031 114.054688 C 182.808594 107.035156 173.476562 103.101562 163.542969 102.984375 L 163.511719 102.984375 C 162.78125 102.984375 162.09375 103.269531 161.574219 103.789062 C 161.0625 104.300781 160.777344 104.976562 160.769531 105.695312 C 160.761719 106.425781 161.035156 107.121094 161.550781 107.644531 C 162.0625 108.167969 162.746094 108.460938 163.480469 108.46875 C 171.96875 108.570312 179.949219 111.929688 185.953125 117.933594 C 192.289062 124.269531 195.644531 132.691406 195.40625 141.652344 C 195.363281 143.164062 196.5625 144.429688 198.078125 144.472656 C 198.097656 144.472656 198.117188 144.472656 198.136719 144.472656 C 199.617188 144.472656 200.847656 143.285156 200.890625 141.804688 C 201.167969 131.316406 197.238281 121.464844 189.832031 114.054688 "/>
<path style=" stroke:none;fill-rule:nonzero;fill:rgb(100%,100%,100%);fill-opacity:1;" d="M 131.773438 190.265625 C 131.773438 188.773438 131.535156 187.535156 131.046875 186.554688 C 130.5625 185.570312 129.917969 184.789062 129.109375 184.203125 C 128.300781 183.621094 127.378906 183.203125 126.347656 182.953125 C 125.316406 182.707031 124.253906 182.582031 123.160156 182.582031 L 119.988281 182.582031 L 119.988281 198.023438 L 123.007812 198.023438 C 124.152344 198.023438 125.253906 197.890625 126.3125 197.632812 C 127.367188 197.371094 128.300781 196.941406 129.109375 196.34375 C 129.917969 195.746094 130.5625 194.953125 131.046875 193.957031 C 131.535156 192.964844 131.773438 191.730469 131.773438 190.265625 M 138.414062 190.265625 C 138.414062 192.578125 137.984375 194.570312 137.128906 196.25 C 136.269531 197.929688 135.136719 199.308594 133.734375 200.390625 C 132.328125 201.472656 130.742188 202.269531 128.976562 202.777344 C 127.210938 203.289062 125.421875 203.542969 123.605469 203.542969 L 113.757812 203.542969 L 113.757812 177.132812 L 123.308594 177.132812 C 125.171875 177.132812 127.011719 177.351562 128.828125 177.789062 C 130.644531 178.222656 132.261719 178.941406 133.675781 179.949219 C 135.09375 180.957031 136.238281 182.308594 137.109375 184 C 137.976562 185.6875 138.414062 187.777344 138.414062 190.265625 "/>
<path style=" stroke:none;fill-rule:nonzero;fill:rgb(100%,100%,100%);fill-opacity:1;" d="M 156.503906 185.230469 C 156.503906 184.609375 156.375 184.105469 156.109375 183.71875 C 155.847656 183.332031 155.511719 183.035156 155.097656 182.824219 C 154.6875 182.613281 154.222656 182.46875 153.710938 182.394531 C 153.199219 182.320312 152.707031 182.28125 152.230469 182.28125 L 148.820312 182.28125 L 148.820312 188.4375 L 151.855469 188.4375 C 152.382812 188.4375 152.917969 188.394531 153.46875 188.304688 C 154.019531 188.21875 154.519531 188.0625 154.96875 187.839844 C 155.417969 187.617188 155.789062 187.292969 156.074219 186.871094 C 156.359375 186.445312 156.503906 185.898438 156.503906 185.230469 M 156.765625 203.542969 L 151.035156 193.0625 L 148.855469 193.0625 L 148.855469 203.542969 L 142.628906 203.542969 L 142.628906 177.136719 L 152.699219 177.136719 C 153.96875 177.136719 155.207031 177.265625 156.414062 177.527344 C 157.617188 177.785156 158.699219 178.230469 159.65625 178.851562 C 160.613281 179.472656 161.378906 180.292969 161.953125 181.3125 C 162.523438 182.332031 162.808594 183.601562 162.808594 185.117188 C 162.808594 186.90625 162.324219 188.410156 161.355469 189.628906 C 160.382812 190.847656 159.042969 191.71875 157.324219 192.242188 L 164.226562 203.542969 Z M 156.765625 203.542969 "/>
<path style=" stroke:none;fill-rule:nonzero;fill:rgb(100%,100%,100%);fill-opacity:1;" d="M 182.234375 183.996094 C 181.6875 183.300781 180.972656 182.746094 180.089844 182.339844 C 179.207031 181.929688 178.355469 181.722656 177.535156 181.722656 C 177.113281 181.722656 176.683594 181.761719 176.25 181.832031 C 175.8125 181.910156 175.421875 182.050781 175.074219 182.261719 C 174.722656 182.476562 174.433594 182.746094 174.195312 183.082031 C 173.960938 183.417969 173.84375 183.847656 173.84375 184.371094 C 173.84375 184.820312 173.933594 185.191406 174.121094 185.488281 C 174.308594 185.789062 174.582031 186.050781 174.945312 186.273438 C 175.304688 186.496094 175.734375 186.703125 176.230469 186.886719 C 176.726562 187.074219 177.285156 187.269531 177.90625 187.46875 C 178.804688 187.765625 179.734375 188.09375 180.707031 188.453125 C 181.675781 188.816406 182.558594 189.292969 183.351562 189.890625 C 184.148438 190.488281 184.808594 191.226562 185.332031 192.109375 C 185.851562 192.992188 186.113281 194.09375 186.113281 195.410156 C 186.113281 196.929688 185.835938 198.242188 185.277344 199.347656 C 184.714844 200.453125 183.960938 201.367188 183.015625 202.089844 C 182.074219 202.808594 180.992188 203.34375 179.773438 203.691406 C 178.554688 204.039062 177.296875 204.214844 176.003906 204.214844 C 174.117188 204.214844 172.289062 203.886719 170.523438 203.226562 C 168.757812 202.566406 167.289062 201.628906 166.121094 200.410156 L 170.296875 196.15625 C 170.945312 196.953125 171.796875 197.617188 172.855469 198.152344 C 173.910156 198.6875 174.960938 198.953125 176.003906 198.953125 C 176.476562 198.953125 176.9375 198.90625 177.386719 198.804688 C 177.832031 198.707031 178.226562 198.542969 178.5625 198.320312 C 178.898438 198.097656 179.164062 197.800781 179.363281 197.425781 C 179.5625 197.054688 179.664062 196.605469 179.664062 196.082031 C 179.664062 195.585938 179.535156 195.164062 179.289062 194.816406 C 179.039062 194.46875 178.683594 194.148438 178.226562 193.863281 C 177.765625 193.578125 177.195312 193.316406 176.507812 193.078125 C 175.824219 192.84375 175.046875 192.589844 174.179688 192.316406 C 173.332031 192.042969 172.503906 191.71875 171.699219 191.347656 C 170.890625 190.972656 170.167969 190.496094 169.535156 189.910156 C 168.902344 189.324219 168.390625 188.617188 168.003906 187.785156 C 167.621094 186.949219 167.425781 185.9375 167.425781 184.742188 C 167.425781 183.277344 167.722656 182.019531 168.320312 180.976562 C 168.917969 179.933594 169.703125 179.074219 170.671875 178.402344 C 171.640625 177.730469 172.734375 177.238281 173.953125 176.929688 C 175.171875 176.617188 176.40625 176.464844 177.648438 176.464844 C 179.136719 176.464844 180.664062 176.738281 182.214844 177.28125 C 183.769531 177.832031 185.132812 178.640625 186.300781 179.707031 Z M 182.234375 183.996094 "/>
<path style=" stroke:none;fill-rule:nonzero;fill:rgb(100%,100%,100%);fill-opacity:1;" d="M 114.160156 97.632812 L 140.570312 97.632812 L 140.570312 104.046875 L 119.71875 104.046875 L 119.71875 114.269531 L 114.160156 114.269531 Z M 114.160156 97.632812 "/>
<path style=" stroke:none;fill-rule:nonzero;fill:rgb(100%,100%,100%);fill-opacity:1;" d="M 133.519531 130.40625 L 124.457031 127.050781 L 124.457031 133.691406 Z M 114.160156 137.496094 L 119.34375 135.445312 L 119.34375 125.222656 L 114.160156 123.285156 L 114.160156 116.34375 L 140.570312 127.421875 L 140.570312 133.617188 L 114.160156 144.582031 Z M 114.160156 137.496094 "/>
<path style=" stroke:none;fill-rule:nonzero;fill:rgb(100%,100%,100%);fill-opacity:1;" d="M 114.160156 164.609375 L 131.429688 153.976562 L 131.429688 153.867188 L 114.160156 154.015625 L 114.160156 147.824219 L 140.570312 147.824219 L 140.570312 155.097656 L 123.335938 165.691406 L 123.335938 165.800781 L 140.570312 165.652344 L 140.570312 171.84375 L 114.160156 171.84375 Z M 114.160156 164.609375 "/>
<path style=" stroke:none;fill-rule:evenodd;fill:rgb(100%,100%,100%);fill-opacity:1;" d="M 245.804688 141.816406 C 241.207031 141.816406 237.476562 141.0625 237.476562 140.128906 C 237.476562 139.195312 241.207031 138.441406 245.804688 138.441406 C 250.40625 138.441406 254.132812 139.195312 254.132812 140.128906 C 254.132812 141.0625 250.40625 141.816406 245.804688 141.816406 M 256.496094 138.707031 L 256.488281 138.707031 C 256.480469 138.761719 256.457031 138.8125 256.4375 138.867188 C 255.886719 137.421875 251.421875 136.296875 245.996094 136.296875 C 240.570312 136.296875 236.105469 137.421875 235.554688 138.867188 C 235.539062 138.8125 235.511719 138.761719 235.503906 138.707031 L 235.496094 138.707031 L 235.496094 144.253906 L 235.503906 144.253906 C 235.5 144.285156 235.496094 144.320312 235.496094 144.351562 C 235.496094 145.941406 240.199219 147.226562 245.996094 147.226562 C 251.796875 147.226562 256.496094 145.941406 256.496094 144.351562 C 256.496094 144.320312 256.492188 144.285156 256.488281 144.253906 L 256.496094 144.253906 Z M 245.996094 149.828125 C 240.320312 149.828125 235.699219 148.597656 235.503906 147.054688 L 235.496094 147.054688 L 235.496094 152.601562 L 235.503906 152.601562 C 235.5 152.636719 235.496094 152.667969 235.496094 152.703125 C 235.496094 154.289062 240.199219 155.574219 245.996094 155.574219 C 251.796875 155.574219 256.496094 154.289062 256.496094 152.703125 C 256.496094 152.667969 256.492188 152.636719 256.488281 152.601562 L 256.496094 152.601562 L 256.496094 147.054688 L 256.488281 147.054688 C 256.296875 148.597656 251.675781 149.828125 245.996094 149.828125 M 245.996094 158 C 240.320312 158 235.699219 156.769531 235.503906 155.226562 L 235.496094 155.226562 L 235.496094 160.777344 L 235.503906 160.777344 C 235.5 160.808594 235.496094 160.839844 235.496094 160.875 C 235.496094 162.460938 240.199219 163.746094 245.996094 163.746094 C 251.796875 163.746094 256.496094 162.460938 256.496094 160.875 C 256.496094 160.839844 256.492188 160.808594 256.488281 160.777344 L 256.496094 160.777344 L 256.496094 155.226562 L 256.488281 155.226562 C 256.296875 156.769531 251.675781 158 245.996094 158 "/>
<path style=" stroke:none;fill-rule:nonzero;fill:rgb(100%,100%,100%);fill-opacity:1;" d="M 141.777344 248.773438 C 139.226562 248.808594 137.132812 246.769531 137.097656 244.21875 C 137.0625 241.671875 139.097656 239.574219 141.648438 239.539062 C 144.199219 239.503906 146.292969 241.539062 146.328125 244.089844 C 146.367188 246.640625 144.328125 248.734375 141.777344 248.773438 M 149.121094 246.246094 L 151.992188 245.292969 L 151.953125 242.792969 L 149.058594 241.863281 C 148.898438 241.347656 148.683594 240.859375 148.421875 240.398438 L 149.738281 237.648438 L 147.945312 235.90625 L 145.28125 237.339844 C 144.8125 237.09375 144.316406 236.890625 143.796875 236.746094 L 142.789062 233.878906 L 140.289062 233.914062 L 139.417969 236.808594 C 138.894531 236.972656 138.402344 237.191406 137.933594 237.457031 L 135.207031 236.085938 L 133.460938 237.878906 L 134.875 240.628906 C 134.640625 241.085938 134.449219 241.566406 134.304688 242.070312 L 131.4375 243.082031 L 131.472656 245.582031 L 134.371094 246.453125 C 134.53125 246.964844 134.746094 247.453125 135 247.910156 L 133.640625 250.617188 L 135.433594 252.359375 L 138.144531 250.96875 C 138.613281 251.214844 139.105469 251.417969 139.625 251.5625 L 140.574219 254.429688 L 143.078125 254.398438 L 144.003906 251.503906 C 144.511719 251.34375 144.996094 251.132812 145.453125 250.878906 L 148.175781 252.179688 L 149.917969 250.386719 L 148.503906 247.761719 C 148.761719 247.285156 148.96875 246.777344 149.121094 246.246094 "/>
<path style=" stroke:none;fill-rule:nonzero;fill:rgb(100%,100%,100%);fill-opacity:1;" d="M 161.828125 251.558594 C 161.191406 253.398438 159.179688 254.375 157.339844 253.734375 C 155.5 253.097656 154.527344 251.089844 155.164062 249.25 C 155.800781 247.410156 157.8125 246.433594 159.652344 247.074219 C 161.492188 247.710938 162.464844 249.71875 161.828125 251.558594 M 164.367188 250.671875 C 164.386719 250.261719 164.359375 249.851562 164.292969 249.453125 L 165.953125 247.820312 L 165.121094 246.101562 L 162.832031 246.4375 C 162.558594 246.140625 162.257812 245.867188 161.921875 245.625 L 161.945312 243.304688 L 160.136719 242.679688 L 158.761719 244.53125 C 158.34375 244.511719 157.929688 244.539062 157.527344 244.609375 L 155.925781 242.914062 L 154.207031 243.746094 L 154.503906 246.09375 C 154.214844 246.359375 153.953125 246.652344 153.71875 246.976562 L 151.398438 246.957031 L 150.769531 248.761719 L 152.625 250.140625 C 152.605469 250.550781 152.632812 250.957031 152.699219 251.351562 L 151.015625 252.941406 L 151.851562 254.660156 L 154.15625 254.367188 C 154.429688 254.667969 154.734375 254.941406 155.066406 255.179688 L 155.003906 257.488281 L 156.808594 258.113281 L 158.230469 256.277344 C 158.632812 256.296875 159.035156 256.269531 159.429688 256.207031 L 161.046875 257.851562 L 162.761719 257.015625 L 162.433594 254.765625 C 162.742188 254.488281 163.023438 254.175781 163.269531 253.832031 L 165.578125 253.898438 L 166.207031 252.09375 Z M 164.367188 250.671875 "/>
<path style=" stroke:none;fill-rule:nonzero;fill:rgb(100%,100%,100%);fill-opacity:1;" d="M 64.894531 142.742188 C 63.867188 143.71875 62.234375 143.675781 61.257812 142.648438 C 60.28125 141.617188 60.324219 139.984375 61.355469 139.011719 C 62.382812 138.035156 64.015625 138.078125 64.992188 139.105469 C 65.96875 140.136719 65.925781 141.765625 64.894531 142.742188 M 64.503906 157.503906 C 65.480469 158.535156 65.4375 160.164062 64.410156 161.140625 C 63.378906 162.117188 61.75 162.074219 60.773438 161.046875 C 59.796875 160.015625 59.839844 158.386719 60.867188 157.410156 C 61.898438 156.433594 63.527344 156.476562 64.503906 157.503906 M 42.859375 142.160156 C 41.882812 141.132812 41.925781 139.5 42.957031 138.523438 C 43.984375 137.550781 45.617188 137.59375 46.59375 138.621094 C 47.570312 139.648438 47.527344 141.28125 46.496094 142.257812 C 45.46875 143.234375 43.835938 143.191406 42.859375 142.160156 M 46.011719 160.65625 C 44.980469 161.632812 43.351562 161.589844 42.375 160.558594 C 41.398438 159.53125 41.441406 157.898438 42.46875 156.921875 C 43.5 155.949219 45.132812 155.992188 46.105469 157.019531 C 47.082031 158.046875 47.039062 159.679688 46.011719 160.65625 M 60.253906 137.316406 C 58.964844 138.359375 58.40625 139.925781 58.585938 141.425781 C 58.738281 142.6875 58.359375 143.960938 57.429688 144.832031 C 57.351562 144.90625 57.273438 144.980469 57.199219 145.050781 C 56.375 145.832031 55.011719 146.101562 53.765625 146.074219 C 52.519531 146.046875 51.078125 145.550781 50.386719 144.902344 C 50.375 144.894531 50.367188 144.886719 50.359375 144.878906 C 49.355469 143.933594 48.992188 142.535156 49.230469 141.179688 C 49.488281 139.691406 49.011719 138.097656 47.78125 136.988281 C 46.074219 135.449219 43.386719 135.449219 41.675781 136.984375 C 39.75 138.710938 39.640625 141.675781 41.40625 143.539062 C 42.441406 144.628906 43.878906 145.09375 45.261719 144.929688 C 46.570312 144.777344 47.878906 145.167969 48.785156 146.121094 L 48.808594 146.148438 C 49.660156 147.046875 49.953125 148.503906 49.925781 149.75 C 49.898438 150.996094 49.355469 152.558594 48.578125 153.296875 C 47.804688 154.03125 46.3125 154.511719 45.027344 154.289062 C 43.539062 154.027344 41.945312 154.503906 40.835938 155.734375 C 39.296875 157.441406 39.300781 160.128906 40.832031 161.839844 C 42.558594 163.765625 45.523438 163.875 47.386719 162.109375 C 48.476562 161.074219 48.945312 159.636719 48.78125 158.253906 C 48.625 156.949219 49.015625 155.636719 49.972656 154.730469 L 49.996094 154.707031 C 50.734375 154.007812 52.351562 153.5625 53.601562 153.589844 C 54.847656 153.617188 56.003906 154.046875 56.980469 154.765625 L 57.144531 154.9375 C 58.042969 155.882812 58.359375 157.203125 58.136719 158.488281 C 57.875 159.972656 58.351562 161.566406 59.585938 162.679688 C 61.289062 164.21875 63.980469 164.214844 65.691406 162.683594 C 67.617188 160.957031 67.726562 157.992188 65.957031 156.128906 C 64.925781 155.039062 63.484375 154.574219 62.101562 154.734375 C 60.796875 154.890625 59.488281 154.5 58.582031 153.542969 L 58.558594 153.519531 C 57.734375 152.648438 57.414062 151.164062 57.441406 149.917969 C 57.46875 148.671875 57.886719 147.226562 58.613281 146.535156 L 58.769531 146.386719 C 59.726562 145.480469 61.054688 145.160156 62.347656 145.382812 C 63.722656 145.617188 65.183594 145.226562 66.273438 144.195312 C 68.136719 142.425781 68.183594 139.460938 66.351562 137.636719 C 64.722656 136.011719 62.039062 135.871094 60.253906 137.316406 "/>
<path style=" stroke:none;fill-rule:nonzero;fill:rgb(100%,100%,100%);fill-opacity:1;" d="M 150.0625 55.507812 L 147.679688 54.316406 L 144.984375 57.683594 L 131 64.789062 C 131 64.789062 131.0625 59 131.074219 57.800781 C 131.085938 56.605469 131.28125 55.792969 132.300781 55.085938 C 133.542969 54.226562 142.992188 47.835938 144.976562 46.464844 C 147.582031 44.667969 147.351562 41.269531 150.214844 41.300781 C 153.074219 41.332031 152.773438 44.722656 155.339844 46.574219 C 157.292969 47.984375 166.605469 54.574219 167.832031 55.460938 C 168.832031 56.1875 169.011719 57.003906 169 58.203125 C 168.988281 59.402344 168.925781 65.1875 168.925781 65.1875 L 155.097656 57.789062 L 152.472656 54.367188 Z M 150.0625 55.507812 "/>
</g>
</svg>
